<?xml version="1.0" encoding="UTF-8" standalone="no"?>
<!DOCTYPE svg PUBLIC "-//W3C//DTD SVG 1.1//EN"
 "http://www.w3.org/Graphics/SVG/1.1/DTD/svg11.dtd">
<!-- Generated by graphviz version 14.0.1 (20251006.0113)
 -->
<!-- Title: G Pages: 1 -->
<svg width="2953pt" height="1245pt"
 viewBox="0.00 0.00 2953.00 1245.00" xmlns="http://www.w3.org/2000/svg" xmlns:xlink="http://www.w3.org/1999/xlink">
<g id="graph0" class="graph" transform="scale(1 1) rotate(0) translate(21.6 1223.25)">
<title>G</title>
<polygon fill="#111111" stroke="none" points="-21.6,21.6 -21.6,-1223.25 2931.35,-1223.25 2931.35,21.6 -21.6,21.6"/>
<!-- ../components/breadcrumb.js -->
<g id="node1" class="node">
<title>../components/breadcrumb.js</title>
<path fill="none" stroke="#c6c5fe" d="M318.08,-896.75C318.08,-896.75 142.42,-896.75 142.42,-896.75 138.46,-896.75 134.5,-892.79 134.5,-888.83 134.5,-888.83 134.5,-880.92 134.5,-880.92 134.5,-876.96 138.46,-873 142.42,-873 142.42,-873 318.08,-873 318.08,-873 322.04,-873 326,-876.96 326,-880.92 326,-880.92 326,-888.83 326,-888.83 326,-892.79 322.04,-896.75 318.08,-896.75"/>
<text xml:space="preserve" text-anchor="middle" x="230.25" y="-879.45" font-family="Arial" font-size="14.00" fill="#c6c5fe">../components/breadcrumb.js</text>
</g>
<!-- ../components/link.js -->
<g id="node2" class="node">
<title>../components/link.js</title>
<path fill="none" stroke="#c6c5fe" d="M1816.71,-829.75C1816.71,-829.75 1693.54,-829.75 1693.54,-829.75 1689.58,-829.75 1685.62,-825.79 1685.62,-821.83 1685.62,-821.83 1685.62,-813.92 1685.62,-813.92 1685.62,-809.96 1689.58,-806 1693.54,-806 1693.54,-806 1816.71,-806 1816.71,-806 1820.67,-806 1824.62,-809.96 1824.62,-813.92 1824.62,-813.92 1824.62,-821.83 1824.62,-821.83 1824.62,-825.79 1820.67,-829.75 1816.71,-829.75"/>
<text xml:space="preserve" text-anchor="middle" x="1755.12" y="-812.45" font-family="Arial" font-size="14.00" fill="#c6c5fe">../components/link.js</text>
</g>
<!-- ../components/breadcrumb.js&#45;&gt;../components/link.js -->
<g id="edge1" class="edge">
<title>../components/breadcrumb.js&#45;&gt;../components/link.js</title>
<path fill="none" stroke="#757575" d="M326.16,-884.31C433.8,-883.72 614.59,-882.88 770.12,-882.88 770.12,-882.88 770.12,-882.88 1090.75,-882.88 1304.24,-882.88 1358.95,-887.57 1570.5,-858.88 1593.73,-855.72 1648.61,-843.22 1692.37,-832.84"/>
<polygon fill="#757575" stroke="#757575" points="1693.13,-836.26 1702.04,-830.54 1691.5,-829.45 1693.13,-836.26"/>
</g>
<!-- ../reusable/index.js -->
<g id="node3" class="node">
<title>../reusable/index.js</title>
<path fill="none" stroke="#ff6c60" d="M2060.33,-641.75C2060.33,-641.75 1947.67,-641.75 1947.67,-641.75 1943.71,-641.75 1939.75,-637.79 1939.75,-633.83 1939.75,-633.83 1939.75,-625.92 1939.75,-625.92 1939.75,-621.96 1943.71,-618 1947.67,-618 1947.67,-618 2060.33,-618 2060.33,-618 2064.29,-618 2068.25,-621.96 2068.25,-625.92 2068.25,-625.92 2068.25,-633.83 2068.25,-633.83 2068.25,-637.79 2064.29,-641.75 2060.33,-641.75"/>
<text xml:space="preserve" text-anchor="middle" x="2004" y="-624.45" font-family="Arial" font-size="14.00" fill="#ff6c60">../reusable/index.js</text>
</g>
<!-- ../components/breadcrumb.js&#45;&gt;../reusable/index.js -->
<g id="edge2" class="edge">
<title>../components/breadcrumb.js&#45;&gt;../reusable/index.js</title>
<path fill="none" stroke="#757575" d="M282.16,-897.23C377.37,-919.23 589.1,-962.88 770.12,-962.88 770.12,-962.88 770.12,-962.88 1419.5,-962.88 1527.19,-962.88 1818.14,-1009.22 1903.75,-943.88 1997.09,-872.63 2004.54,-713.58 2003.84,-653.49"/>
<polygon fill="#757575" stroke="#757575" points="2007.35,-653.66 2003.63,-643.74 2000.35,-653.82 2007.35,-653.66"/>
</g>
<!-- ../components/link.js&#45;&gt;../reusable/index.js -->
<g id="edge40" class="edge">
<title>../components/link.js&#45;&gt;../reusable/index.js</title>
<path fill="none" stroke="#757575" d="M1824.92,-813.66C1851.44,-809.32 1880.83,-800.91 1903.75,-784.88 1951.52,-751.44 1981.62,-686.91 1994.97,-652.61"/>
<polygon fill="#757575" stroke="#757575" points="1998.24,-653.85 1998.46,-643.25 1991.68,-651.4 1998.24,-653.85"/>
</g>
<!-- ../reusable/alert.js -->
<g id="node35" class="node">
<title>../reusable/alert.js</title>
<path fill="none" stroke="#cfffac" d="M2258.58,-990.75C2258.58,-990.75 2151.92,-990.75 2151.92,-990.75 2147.96,-990.75 2144,-986.79 2144,-982.83 2144,-982.83 2144,-974.92 2144,-974.92 2144,-970.96 2147.96,-967 2151.92,-967 2151.92,-967 2258.58,-967 2258.58,-967 2262.54,-967 2266.5,-970.96 2266.5,-974.92 2266.5,-974.92 2266.5,-982.83 2266.5,-982.83 2266.5,-986.79 2262.54,-990.75 2258.58,-990.75"/>
<text xml:space="preserve" text-anchor="middle" x="2205.25" y="-973.45" font-family="Arial" font-size="14.00" fill="#cfffac">../reusable/alert.js</text>
</g>
<!-- ../reusable/index.js&#45;&gt;../reusable/alert.js -->
<g id="edge66" class="edge">
<title>../reusable/index.js&#45;&gt;../reusable/alert.js</title>
<path fill="none" stroke="#757575" d="M2004.62,-641.93C2003.8,-689.95 2007.55,-869.23 2104.25,-957.88 2112.26,-965.22 2122.15,-970.25 2132.58,-973.65"/>
<polygon fill="#757575" stroke="#757575" points="2131.55,-977 2142.12,-976.24 2133.39,-970.24 2131.55,-977"/>
</g>
<!-- ../reusable/breadcrumb.js -->
<g id="node36" class="node">
<title>../reusable/breadcrumb.js</title>
<path fill="none" stroke="#ff6c60" d="M2281.83,-948.75C2281.83,-948.75 2128.67,-948.75 2128.67,-948.75 2124.71,-948.75 2120.75,-944.79 2120.75,-940.83 2120.75,-940.83 2120.75,-932.92 2120.75,-932.92 2120.75,-928.96 2124.71,-925 2128.67,-925 2128.67,-925 2281.83,-925 2281.83,-925 2285.79,-925 2289.75,-928.96 2289.75,-932.92 2289.75,-932.92 2289.75,-940.83 2289.75,-940.83 2289.75,-944.79 2285.79,-948.75 2281.83,-948.75"/>
<text xml:space="preserve" text-anchor="middle" x="2205.25" y="-931.45" font-family="Arial" font-size="14.00" fill="#ff6c60">../reusable/breadcrumb.js</text>
</g>
<!-- ../reusable/index.js&#45;&gt;../reusable/breadcrumb.js -->
<g id="edge67" class="edge">
<title>../reusable/index.js&#45;&gt;../reusable/breadcrumb.js</title>
<path fill="none" stroke="#757575" d="M2005.39,-642.21C2007.5,-686.13 2020.82,-833.42 2104.25,-906.88 2111.38,-913.15 2119.9,-917.72 2128.92,-921.11"/>
<polygon fill="#757575" stroke="#757575" points="2127.65,-924.38 2138.25,-924.1 2129.8,-917.71 2127.65,-924.38"/>
</g>
<!-- ../reusable/button.js -->
<g id="node37" class="node">
<title>../reusable/button.js</title>
<path fill="none" stroke="#ff6c60" d="M2264.21,-906.75C2264.21,-906.75 2146.29,-906.75 2146.29,-906.75 2142.33,-906.75 2138.38,-902.79 2138.38,-898.83 2138.38,-898.83 2138.38,-890.92 2138.38,-890.92 2138.38,-886.96 2142.33,-883 2146.29,-883 2146.29,-883 2264.21,-883 2264.21,-883 2268.17,-883 2272.12,-886.96 2272.12,-890.92 2272.12,-890.92 2272.12,-898.83 2272.12,-898.83 2272.12,-902.79 2268.17,-906.75 2264.21,-906.75"/>
<text xml:space="preserve" text-anchor="middle" x="2205.25" y="-889.45" font-family="Arial" font-size="14.00" fill="#ff6c60">../reusable/button.js</text>
</g>
<!-- ../reusable/index.js&#45;&gt;../reusable/button.js -->
<g id="edge68" class="edge">
<title>../reusable/index.js&#45;&gt;../reusable/button.js</title>
<path fill="none" stroke="#757575" d="M2006.49,-642.07C2011.45,-681.52 2031.41,-804.05 2104.25,-864.88 2111.87,-871.24 2120.93,-875.82 2130.45,-879.19"/>
<polygon fill="#757575" stroke="#757575" points="2129.29,-882.5 2139.88,-882.08 2131.34,-875.81 2129.29,-882.5"/>
</g>
<!-- ../reusable/card.js -->
<g id="node39" class="node">
<title>../reusable/card.js</title>
<path fill="none" stroke="#ff6c60" d="M2258.58,-864.75C2258.58,-864.75 2151.92,-864.75 2151.92,-864.75 2147.96,-864.75 2144,-860.79 2144,-856.83 2144,-856.83 2144,-848.92 2144,-848.92 2144,-844.96 2147.96,-841 2151.92,-841 2151.92,-841 2258.58,-841 2258.58,-841 2262.54,-841 2266.5,-844.96 2266.5,-848.92 2266.5,-848.92 2266.5,-856.83 2266.5,-856.83 2266.5,-860.79 2262.54,-864.75 2258.58,-864.75"/>
<text xml:space="preserve" text-anchor="middle" x="2205.25" y="-847.45" font-family="Arial" font-size="14.00" fill="#ff6c60">../reusable/card.js</text>
</g>
<!-- ../reusable/index.js&#45;&gt;../reusable/card.js -->
<g id="edge69" class="edge">
<title>../reusable/index.js&#45;&gt;../reusable/card.js</title>
<path fill="none" stroke="#757575" d="M2008.48,-641.91C2017.33,-675.65 2044.36,-769.52 2104.25,-817.88 2116.21,-827.53 2131.37,-833.64 2146.25,-837.82"/>
<polygon fill="#757575" stroke="#757575" points="2144.96,-841.11 2155.51,-840.18 2146.68,-834.32 2144.96,-841.11"/>
</g>
<!-- ../reusable/create&#45;slug.js -->
<g id="node40" class="node">
<title>../reusable/create&#45;slug.js</title>
<path fill="none" stroke="#cfffac" d="M2278.83,-784.75C2278.83,-784.75 2131.67,-784.75 2131.67,-784.75 2127.71,-784.75 2123.75,-780.79 2123.75,-776.83 2123.75,-776.83 2123.75,-768.92 2123.75,-768.92 2123.75,-764.96 2127.71,-761 2131.67,-761 2131.67,-761 2278.83,-761 2278.83,-761 2282.79,-761 2286.75,-764.96 2286.75,-768.92 2286.75,-768.92 2286.75,-776.83 2286.75,-776.83 2286.75,-780.79 2282.79,-784.75 2278.83,-784.75"/>
<text xml:space="preserve" text-anchor="middle" x="2205.25" y="-767.45" font-family="Arial" font-size="14.00" fill="#cfffac">../reusable/create&#45;slug.js</text>
</g>
<!-- ../reusable/index.js&#45;&gt;../reusable/create&#45;slug.js -->
<g id="edge70" class="edge">
<title>../reusable/index.js&#45;&gt;../reusable/create&#45;slug.js</title>
<path fill="none" stroke="#757575" d="M2011.27,-642.25C2024.65,-667.3 2058.55,-724.02 2104.25,-751.88 2107.05,-753.58 2109.98,-755.16 2112.98,-756.6"/>
<polygon fill="#757575" stroke="#757575" points="2111.53,-759.79 2122.1,-760.46 2114.25,-753.34 2111.53,-759.79"/>
</g>
<!-- ../reusable/expandable/index.js -->
<g id="node45" class="node">
<title>../reusable/expandable/index.js</title>
<path fill="none" stroke="#ff6c60" d="M2298.33,-742.75C2298.33,-742.75 2112.17,-742.75 2112.17,-742.75 2108.21,-742.75 2104.25,-738.79 2104.25,-734.83 2104.25,-734.83 2104.25,-726.92 2104.25,-726.92 2104.25,-722.96 2108.21,-719 2112.17,-719 2112.17,-719 2298.33,-719 2298.33,-719 2302.29,-719 2306.25,-722.96 2306.25,-726.92 2306.25,-726.92 2306.25,-734.83 2306.25,-734.83 2306.25,-738.79 2302.29,-742.75 2298.33,-742.75"/>
<text xml:space="preserve" text-anchor="middle" x="2205.25" y="-725.45" font-family="Arial" font-size="14.00" fill="#ff6c60">../reusable/expandable/index.js</text>
</g>
<!-- ../reusable/index.js&#45;&gt;../reusable/expandable/index.js -->
<g id="edge71" class="edge">
<title>../reusable/index.js&#45;&gt;../reusable/expandable/index.js</title>
<path fill="none" stroke="#757575" d="M2017.69,-642.14C2035.57,-658.74 2069.84,-688.22 2104.25,-704.88 2112.46,-708.85 2121.35,-712.27 2130.33,-715.2"/>
<polygon fill="#757575" stroke="#757575" points="2129.25,-718.53 2139.84,-718.09 2131.29,-711.83 2129.25,-718.53"/>
</g>
<!-- ../reusable/heading.js -->
<g id="node46" class="node">
<title>../reusable/heading.js</title>
<path fill="none" stroke="#ff6c60" d="M2269.46,-662.75C2269.46,-662.75 2141.04,-662.75 2141.04,-662.75 2137.08,-662.75 2133.12,-658.79 2133.12,-654.83 2133.12,-654.83 2133.12,-646.92 2133.12,-646.92 2133.12,-642.96 2137.08,-639 2141.04,-639 2141.04,-639 2269.46,-639 2269.46,-639 2273.42,-639 2277.38,-642.96 2277.38,-646.92 2277.38,-646.92 2277.38,-654.83 2277.38,-654.83 2277.38,-658.79 2273.42,-662.75 2269.46,-662.75"/>
<text xml:space="preserve" text-anchor="middle" x="2205.25" y="-645.45" font-family="Arial" font-size="14.00" fill="#ff6c60">../reusable/heading.js</text>
</g>
<!-- ../reusable/index.js&#45;&gt;../reusable/heading.js -->
<g id="edge72" class="edge">
<title>../reusable/index.js&#45;&gt;../reusable/heading.js</title>
<path fill="none" stroke="#757575" d="M2068.59,-630.24C2089.64,-631.96 2113.16,-634.39 2134.64,-637.07"/>
<polygon fill="#757575" stroke="#757575" points="2134.12,-640.53 2144.49,-638.34 2135.02,-633.59 2134.12,-640.53"/>
</g>
<!-- ../reusable/icon.js -->
<g id="node47" class="node">
<title>../reusable/icon.js</title>
<path fill="none" stroke="#cfffac" d="M2257.83,-620.75C2257.83,-620.75 2152.67,-620.75 2152.67,-620.75 2148.71,-620.75 2144.75,-616.79 2144.75,-612.83 2144.75,-612.83 2144.75,-604.92 2144.75,-604.92 2144.75,-600.96 2148.71,-597 2152.67,-597 2152.67,-597 2257.83,-597 2257.83,-597 2261.79,-597 2265.75,-600.96 2265.75,-604.92 2265.75,-604.92 2265.75,-612.83 2265.75,-612.83 2265.75,-616.79 2261.79,-620.75 2257.83,-620.75"/>
<text xml:space="preserve" text-anchor="middle" x="2205.25" y="-603.45" font-family="Arial" font-size="14.00" fill="#cfffac">../reusable/icon.js</text>
</g>
<!-- ../reusable/index.js&#45;&gt;../reusable/icon.js -->
<g id="edge73" class="edge">
<title>../reusable/index.js&#45;&gt;../reusable/icon.js</title>
<path fill="none" stroke="#757575" d="M2068.59,-623.17C2089.06,-621.02 2111.87,-618.61 2132.86,-616.4"/>
<polygon fill="#757575" stroke="#757575" points="2133.23,-619.88 2142.81,-615.35 2132.49,-612.92 2133.23,-619.88"/>
</g>
<!-- ../reusable/input.js -->
<g id="node48" class="node">
<title>../reusable/input.js</title>
<path fill="none" stroke="#ff6c60" d="M2260.08,-578.75C2260.08,-578.75 2150.42,-578.75 2150.42,-578.75 2146.46,-578.75 2142.5,-574.79 2142.5,-570.83 2142.5,-570.83 2142.5,-562.92 2142.5,-562.92 2142.5,-558.96 2146.46,-555 2150.42,-555 2150.42,-555 2260.08,-555 2260.08,-555 2264.04,-555 2268,-558.96 2268,-562.92 2268,-562.92 2268,-570.83 2268,-570.83 2268,-574.79 2264.04,-578.75 2260.08,-578.75"/>
<text xml:space="preserve" text-anchor="middle" x="2205.25" y="-561.45" font-family="Arial" font-size="14.00" fill="#ff6c60">../reusable/input.js</text>
</g>
<!-- ../reusable/index.js&#45;&gt;../reusable/input.js -->
<g id="edge74" class="edge">
<title>../reusable/index.js&#45;&gt;../reusable/input.js</title>
<path fill="none" stroke="#757575" d="M2017.86,-617.56C2036.5,-605.43 2072.29,-588.89 2104.25,-578.88 2112.85,-576.18 2121.99,-573.73 2131.09,-571.59"/>
<polygon fill="#757575" stroke="#757575" points="2131.66,-575.05 2140.68,-569.49 2130.16,-568.22 2131.66,-575.05"/>
</g>
<!-- ../reusable/kbd.js -->
<g id="node49" class="node">
<title>../reusable/kbd.js</title>
<path fill="none" stroke="#c6c5fe" d="M2256.33,-536.75C2256.33,-536.75 2154.17,-536.75 2154.17,-536.75 2150.21,-536.75 2146.25,-532.79 2146.25,-528.83 2146.25,-528.83 2146.25,-520.92 2146.25,-520.92 2146.25,-516.96 2150.21,-513 2154.17,-513 2154.17,-513 2256.33,-513 2256.33,-513 2260.29,-513 2264.25,-516.96 2264.25,-520.92 2264.25,-520.92 2264.25,-528.83 2264.25,-528.83 2264.25,-532.79 2260.29,-536.75 2256.33,-536.75"/>
<text xml:space="preserve" text-anchor="middle" x="2205.25" y="-519.45" font-family="Arial" font-size="14.00" fill="#c6c5fe">../reusable/kbd.js</text>
</g>
<!-- ../reusable/index.js&#45;&gt;../reusable/kbd.js -->
<g id="edge75" class="edge">
<title>../reusable/index.js&#45;&gt;../reusable/kbd.js</title>
<path fill="none" stroke="#757575" d="M2015.56,-617.7C2032.37,-599.15 2067.14,-564.02 2104.25,-545.88 2113.77,-541.22 2124.3,-537.59 2134.84,-534.77"/>
<polygon fill="#757575" stroke="#757575" points="2135.42,-538.23 2144.31,-532.47 2133.77,-531.43 2135.42,-538.23"/>
</g>
<!-- ../reusable/link.js -->
<g id="node50" class="node">
<title>../reusable/link.js</title>
<path fill="none" stroke="#ff6c60" d="M2255.58,-456.75C2255.58,-456.75 2154.92,-456.75 2154.92,-456.75 2150.96,-456.75 2147,-452.79 2147,-448.83 2147,-448.83 2147,-440.92 2147,-440.92 2147,-436.96 2150.96,-433 2154.92,-433 2154.92,-433 2255.58,-433 2255.58,-433 2259.54,-433 2263.5,-436.96 2263.5,-440.92 2263.5,-440.92 2263.5,-448.83 2263.5,-448.83 2263.5,-452.79 2259.54,-456.75 2255.58,-456.75"/>
<text xml:space="preserve" text-anchor="middle" x="2205.25" y="-439.45" font-family="Arial" font-size="14.00" fill="#ff6c60">../reusable/link.js</text>
</g>
<!-- ../reusable/index.js&#45;&gt;../reusable/link.js -->
<g id="edge76" class="edge">
<title>../reusable/index.js&#45;&gt;../reusable/link.js</title>
<path fill="none" stroke="#757575" d="M2007.73,-617.58C2016.78,-585.73 2048.39,-502.91 2104.25,-461.88 2113.62,-454.99 2124.65,-449.93 2135.9,-446.35"/>
<polygon fill="#757575" stroke="#757575" points="2136.55,-449.8 2145.25,-443.77 2134.68,-443.06 2136.55,-449.8"/>
</g>
<!-- ../reusable/list.js -->
<g id="node51" class="node">
<title>../reusable/list.js</title>
<path fill="none" stroke="#ff6c60" d="M2253.71,-414.75C2253.71,-414.75 2156.79,-414.75 2156.79,-414.75 2152.83,-414.75 2148.88,-410.79 2148.88,-406.83 2148.88,-406.83 2148.88,-398.92 2148.88,-398.92 2148.88,-394.96 2152.83,-391 2156.79,-391 2156.79,-391 2253.71,-391 2253.71,-391 2257.67,-391 2261.62,-394.96 2261.62,-398.92 2261.62,-398.92 2261.62,-406.83 2261.62,-406.83 2261.62,-410.79 2257.67,-414.75 2253.71,-414.75"/>
<text xml:space="preserve" text-anchor="middle" x="2205.25" y="-397.45" font-family="Arial" font-size="14.00" fill="#ff6c60">../reusable/list.js</text>
</g>
<!-- ../reusable/index.js&#45;&gt;../reusable/list.js -->
<g id="edge77" class="edge">
<title>../reusable/index.js&#45;&gt;../reusable/list.js</title>
<path fill="none" stroke="#757575" d="M2006.41,-617.69C2012.05,-580.1 2036.12,-468.24 2104.25,-414.88 2113.87,-407.34 2125.56,-402.34 2137.51,-399.23"/>
<polygon fill="#757575" stroke="#757575" points="2137.96,-402.71 2147.01,-397.2 2136.5,-395.86 2137.96,-402.71"/>
</g>
<!-- ../reusable/text&#45;input.js -->
<g id="node52" class="node">
<title>../reusable/text&#45;input.js</title>
<path fill="none" stroke="#ff6c60" d="M2273.21,-372.75C2273.21,-372.75 2137.29,-372.75 2137.29,-372.75 2133.33,-372.75 2129.38,-368.79 2129.38,-364.83 2129.38,-364.83 2129.38,-356.92 2129.38,-356.92 2129.38,-352.96 2133.33,-349 2137.29,-349 2137.29,-349 2273.21,-349 2273.21,-349 2277.17,-349 2281.12,-352.96 2281.12,-356.92 2281.12,-356.92 2281.12,-364.83 2281.12,-364.83 2281.12,-368.79 2277.17,-372.75 2273.21,-372.75"/>
<text xml:space="preserve" text-anchor="middle" x="2205.25" y="-355.45" font-family="Arial" font-size="14.00" fill="#ff6c60">../reusable/text&#45;input.js</text>
</g>
<!-- ../reusable/index.js&#45;&gt;../reusable/text&#45;input.js -->
<g id="edge78" class="edge">
<title>../reusable/index.js&#45;&gt;../reusable/text&#45;input.js</title>
<path fill="none" stroke="#757575" d="M2005.66,-617.72C2008.82,-575.72 2025.77,-438.79 2104.25,-372.88 2108.64,-369.19 2113.51,-366.1 2118.67,-363.53"/>
<polygon fill="#757575" stroke="#757575" points="2119.66,-366.92 2127.52,-359.81 2116.95,-360.46 2119.66,-366.92"/>
</g>
<!-- ../reusable/text.js -->
<g id="node53" class="node">
<title>../reusable/text.js</title>
<path fill="none" stroke="#ff6c60" d="M2256.33,-330.75C2256.33,-330.75 2154.17,-330.75 2154.17,-330.75 2150.21,-330.75 2146.25,-326.79 2146.25,-322.83 2146.25,-322.83 2146.25,-314.92 2146.25,-314.92 2146.25,-310.96 2150.21,-307 2154.17,-307 2154.17,-307 2256.33,-307 2256.33,-307 2260.29,-307 2264.25,-310.96 2264.25,-314.92 2264.25,-314.92 2264.25,-322.83 2264.25,-322.83 2264.25,-326.79 2260.29,-330.75 2256.33,-330.75"/>
<text xml:space="preserve" text-anchor="middle" x="2205.25" y="-313.45" font-family="Arial" font-size="14.00" fill="#ff6c60">../reusable/text.js</text>
</g>
<!-- ../reusable/index.js&#45;&gt;../reusable/text.js -->
<g id="edge79" class="edge">
<title>../reusable/index.js&#45;&gt;../reusable/text.js</title>
<path fill="none" stroke="#757575" d="M2005.09,-617.53C2006.02,-571.19 2015.35,-409.48 2104.25,-330.88 2112.96,-323.17 2123.77,-318.04 2135.03,-314.81"/>
<polygon fill="#757575" stroke="#757575" points="2135.48,-318.3 2144.43,-312.62 2133.9,-311.48 2135.48,-318.3"/>
</g>
<!-- ../reusable/utils.js -->
<g id="node54" class="node">
<title>../reusable/utils.js</title>
<path fill="none" stroke="#cfffac" d="M2540.46,-516.75C2540.46,-516.75 2436.04,-516.75 2436.04,-516.75 2432.08,-516.75 2428.12,-512.79 2428.12,-508.83 2428.12,-508.83 2428.12,-500.92 2428.12,-500.92 2428.12,-496.96 2432.08,-493 2436.04,-493 2436.04,-493 2540.46,-493 2540.46,-493 2544.42,-493 2548.38,-496.96 2548.38,-500.92 2548.38,-500.92 2548.38,-508.83 2548.38,-508.83 2548.38,-512.79 2544.42,-516.75 2540.46,-516.75"/>
<text xml:space="preserve" text-anchor="middle" x="2488.25" y="-499.45" font-family="Arial" font-size="14.00" fill="#cfffac">../reusable/utils.js</text>
</g>
<!-- ../reusable/index.js&#45;&gt;../reusable/utils.js -->
<g id="edge80" class="edge">
<title>../reusable/index.js&#45;&gt;../reusable/utils.js</title>
<path fill="none" stroke="#757575" d="M2010.16,-617.52C2022.08,-590.79 2054.4,-528.07 2104.25,-503.88 2210.16,-452.48 2352.76,-472.65 2430.65,-489.98"/>
<polygon fill="#757575" stroke="#757575" points="2429.65,-493.34 2440.18,-492.17 2431.22,-486.52 2429.65,-493.34"/>
</g>
<!-- ../components/drupal&#45;entity.js -->
<g id="node4" class="node">
<title>../components/drupal&#45;entity.js</title>
<path fill="none" stroke="#c6c5fe" d="M1506.71,-934.75C1506.71,-934.75 1330.29,-934.75 1330.29,-934.75 1326.33,-934.75 1322.38,-930.79 1322.38,-926.83 1322.38,-926.83 1322.38,-918.92 1322.38,-918.92 1322.38,-914.96 1326.33,-911 1330.29,-911 1330.29,-911 1506.71,-911 1506.71,-911 1510.67,-911 1514.62,-914.96 1514.62,-918.92 1514.62,-918.92 1514.62,-926.83 1514.62,-926.83 1514.62,-930.79 1510.67,-934.75 1506.71,-934.75"/>
<text xml:space="preserve" text-anchor="middle" x="1418.5" y="-917.45" font-family="Arial" font-size="14.00" fill="#c6c5fe">../components/drupal&#45;entity.js</text>
</g>
<!-- ../components/drupal&#45;entity.js&#45;&gt;../components/link.js -->
<g id="edge4" class="edge">
<title>../components/drupal&#45;entity.js&#45;&gt;../components/link.js</title>
<path fill="none" stroke="#757575" d="M1514.95,-917C1534.24,-912.97 1553.72,-906.65 1570.5,-896.88 1592.33,-884.15 1585.08,-866.27 1606.5,-852.88 1626.75,-840.21 1651.17,-832.13 1674.27,-826.97"/>
<polygon fill="#757575" stroke="#757575" points="1674.91,-830.41 1684,-824.97 1673.5,-823.55 1674.91,-830.41"/>
</g>
<!-- ../components/image.js -->
<g id="node5" class="node">
<title>../components/image.js</title>
<path fill="none" stroke="#c6c5fe" d="M1825.33,-885.75C1825.33,-885.75 1684.92,-885.75 1684.92,-885.75 1680.96,-885.75 1677,-881.79 1677,-877.83 1677,-877.83 1677,-869.92 1677,-869.92 1677,-865.96 1680.96,-862 1684.92,-862 1684.92,-862 1825.33,-862 1825.33,-862 1829.29,-862 1833.25,-865.96 1833.25,-869.92 1833.25,-869.92 1833.25,-877.83 1833.25,-877.83 1833.25,-881.79 1829.29,-885.75 1825.33,-885.75"/>
<text xml:space="preserve" text-anchor="middle" x="1755.12" y="-868.45" font-family="Arial" font-size="14.00" fill="#c6c5fe">../components/image.js</text>
</g>
<!-- ../components/drupal&#45;entity.js&#45;&gt;../components/image.js -->
<g id="edge3" class="edge">
<title>../components/drupal&#45;entity.js&#45;&gt;../components/image.js</title>
<path fill="none" stroke="#757575" d="M1503.94,-910.51C1553.26,-903.29 1615.43,-894.18 1665.46,-886.86"/>
<polygon fill="#757575" stroke="#757575" points="1665.71,-890.36 1675.1,-885.45 1664.69,-883.43 1665.71,-890.36"/>
</g>
<!-- ../components/media&#45;player.js -->
<g id="node6" class="node">
<title>../components/media&#45;player.js</title>
<path fill="none" stroke="#cfffac" d="M1845.58,-934.75C1845.58,-934.75 1664.67,-934.75 1664.67,-934.75 1660.71,-934.75 1656.75,-930.79 1656.75,-926.83 1656.75,-926.83 1656.75,-918.92 1656.75,-918.92 1656.75,-914.96 1660.71,-911 1664.67,-911 1664.67,-911 1845.58,-911 1845.58,-911 1849.54,-911 1853.5,-914.96 1853.5,-918.92 1853.5,-918.92 1853.5,-926.83 1853.5,-926.83 1853.5,-930.79 1849.54,-934.75 1845.58,-934.75"/>
<text xml:space="preserve" text-anchor="middle" x="1755.12" y="-917.45" font-family="Arial" font-size="14.00" fill="#cfffac">../components/media&#45;player.js</text>
</g>
<!-- ../components/drupal&#45;entity.js&#45;&gt;../components/media&#45;player.js -->
<g id="edge5" class="edge">
<title>../components/drupal&#45;entity.js&#45;&gt;../components/media&#45;player.js</title>
<path fill="none" stroke="#757575" d="M1514.94,-922.88C1555.55,-922.88 1603.14,-922.88 1645.12,-922.88"/>
<polygon fill="#757575" stroke="#757575" points="1645.01,-926.38 1655.01,-922.88 1645.01,-919.38 1645.01,-926.38"/>
</g>
<!-- ../components/image.js&#45;&gt;../reusable/index.js -->
<g id="edge34" class="edge">
<title>../components/image.js&#45;&gt;../reusable/index.js</title>
<path fill="none" stroke="#757575" d="M1833.62,-868.66C1858.15,-863.77 1883.99,-854.86 1903.75,-838.88 1963.86,-790.26 1989.68,-696.62 1998.8,-653.13"/>
<polygon fill="#757575" stroke="#757575" points="2002.19,-654.01 2000.69,-643.52 1995.33,-652.66 2002.19,-654.01"/>
</g>
<!-- ../components/footer.js -->
<g id="node7" class="node">
<title>../components/footer.js</title>
<path fill="none" stroke="#c6c5fe" d="M1158.08,-201.75C1158.08,-201.75 1021.42,-201.75 1021.42,-201.75 1017.46,-201.75 1013.5,-197.79 1013.5,-193.83 1013.5,-193.83 1013.5,-185.92 1013.5,-185.92 1013.5,-181.96 1017.46,-178 1021.42,-178 1021.42,-178 1158.08,-178 1158.08,-178 1162.04,-178 1166,-181.96 1166,-185.92 1166,-185.92 1166,-193.83 1166,-193.83 1166,-197.79 1162.04,-201.75 1158.08,-201.75"/>
<text xml:space="preserve" text-anchor="middle" x="1089.75" y="-184.45" font-family="Arial" font-size="14.00" fill="#c6c5fe">../components/footer.js</text>
</g>
<!-- ../components/footer.js&#45;&gt;../reusable/index.js -->
<g id="edge10" class="edge">
<title>../components/footer.js&#45;&gt;../reusable/index.js</title>
<path fill="none" stroke="#757575" d="M1130.4,-177.58C1165.71,-167.31 1218.99,-153.47 1266.5,-147.88 1554.39,-113.95 1710.73,-70.6 1903.75,-286.88 1988.72,-382.08 2001.21,-545.96 2002.85,-606.51"/>
<polygon fill="#757575" stroke="#757575" points="1999.34,-606.35 2003.03,-616.29 2006.34,-606.22 1999.34,-606.35"/>
</g>
<!-- ../components/icon&#45;text.js -->
<g id="node8" class="node">
<title>../components/icon&#45;text.js</title>
<path fill="none" stroke="#c6c5fe" d="M1832.08,-103.75C1832.08,-103.75 1678.17,-103.75 1678.17,-103.75 1674.21,-103.75 1670.25,-99.79 1670.25,-95.83 1670.25,-95.83 1670.25,-87.92 1670.25,-87.92 1670.25,-83.96 1674.21,-80 1678.17,-80 1678.17,-80 1832.08,-80 1832.08,-80 1836.04,-80 1840,-83.96 1840,-87.92 1840,-87.92 1840,-95.83 1840,-95.83 1840,-99.79 1836.04,-103.75 1832.08,-103.75"/>
<text xml:space="preserve" text-anchor="middle" x="1755.12" y="-86.45" font-family="Arial" font-size="14.00" fill="#c6c5fe">../components/icon&#45;text.js</text>
</g>
<!-- ../components/footer.js&#45;&gt;../components/icon&#45;text.js -->
<g id="edge6" class="edge">
<title>../components/footer.js&#45;&gt;../components/icon&#45;text.js</title>
<path fill="none" stroke="#757575" d="M1112.36,-177.64C1144.7,-160.05 1208.13,-128.25 1266.5,-114.88 1400.14,-84.26 1559.59,-83.15 1658.87,-86.48"/>
<polygon fill="#757575" stroke="#757575" points="1658.45,-89.97 1668.57,-86.83 1658.7,-82.97 1658.45,-89.97"/>
</g>
<!-- ../components/plain&#45;link.js -->
<g id="node9" class="node">
<title>../components/plain&#45;link.js</title>
<path fill="none" stroke="#cfffac" d="M1496.58,-264.75C1496.58,-264.75 1340.42,-264.75 1340.42,-264.75 1336.46,-264.75 1332.5,-260.79 1332.5,-256.83 1332.5,-256.83 1332.5,-248.92 1332.5,-248.92 1332.5,-244.96 1336.46,-241 1340.42,-241 1340.42,-241 1496.58,-241 1496.58,-241 1500.54,-241 1504.5,-244.96 1504.5,-248.92 1504.5,-248.92 1504.5,-256.83 1504.5,-256.83 1504.5,-260.79 1500.54,-264.75 1496.58,-264.75"/>
<text xml:space="preserve" text-anchor="middle" x="1418.5" y="-247.45" font-family="Arial" font-size="14.00" fill="#cfffac">../components/plain&#45;link.js</text>
</g>
<!-- ../components/footer.js&#45;&gt;../components/plain&#45;link.js -->
<g id="edge7" class="edge">
<title>../components/footer.js&#45;&gt;../components/plain&#45;link.js</title>
<path fill="none" stroke="#757575" d="M1137.11,-202.25C1172.4,-211.35 1222.26,-223.53 1266.5,-231.88 1284.05,-235.19 1302.85,-238.21 1321.01,-240.87"/>
<polygon fill="#757575" stroke="#757575" points="1320.32,-244.31 1330.72,-242.26 1321.32,-237.38 1320.32,-244.31"/>
</g>
<!-- ../components/utilities/create&#45;google&#45;maps&#45;url.js -->
<g id="node10" class="node">
<title>../components/utilities/create&#45;google&#45;maps&#45;url.js</title>
<path fill="none" stroke="#cfffac" d="M1562.58,-180.75C1562.58,-180.75 1274.42,-180.75 1274.42,-180.75 1270.46,-180.75 1266.5,-176.79 1266.5,-172.83 1266.5,-172.83 1266.5,-164.92 1266.5,-164.92 1266.5,-160.96 1270.46,-157 1274.42,-157 1274.42,-157 1562.58,-157 1562.58,-157 1566.54,-157 1570.5,-160.96 1570.5,-164.92 1570.5,-164.92 1570.5,-172.83 1570.5,-172.83 1570.5,-176.79 1566.54,-180.75 1562.58,-180.75"/>
<text xml:space="preserve" text-anchor="middle" x="1418.5" y="-163.45" font-family="Arial" font-size="14.00" fill="#cfffac">../components/utilities/create&#45;google&#45;maps&#45;url.js</text>
</g>
<!-- ../components/footer.js&#45;&gt;../components/utilities/create&#45;google&#45;maps&#45;url.js -->
<g id="edge8" class="edge">
<title>../components/footer.js&#45;&gt;../components/utilities/create&#45;google&#45;maps&#45;url.js</title>
<path fill="none" stroke="#757575" d="M1166.12,-185.03C1192.73,-183.32 1223.77,-181.33 1254.78,-179.33"/>
<polygon fill="#757575" stroke="#757575" points="1254.93,-182.83 1264.69,-178.7 1254.49,-175.84 1254.93,-182.83"/>
</g>
<!-- ../images/fdlp.png -->
<g id="node11" class="node">
<title>../images/fdlp.png</title>
<path fill="none" stroke="#cfffac" d="M1472.21,-222.75C1472.21,-222.75 1364.79,-222.75 1364.79,-222.75 1360.83,-222.75 1356.88,-218.79 1356.88,-214.83 1356.88,-214.83 1356.88,-206.92 1356.88,-206.92 1356.88,-202.96 1360.83,-199 1364.79,-199 1364.79,-199 1472.21,-199 1472.21,-199 1476.17,-199 1480.12,-202.96 1480.12,-206.92 1480.12,-206.92 1480.12,-214.83 1480.12,-214.83 1480.12,-218.79 1476.17,-222.75 1472.21,-222.75"/>
<text xml:space="preserve" text-anchor="middle" x="1418.5" y="-205.45" font-family="Arial" font-size="14.00" fill="#cfffac">../images/fdlp.png</text>
</g>
<!-- ../components/footer.js&#45;&gt;../images/fdlp.png -->
<g id="edge9" class="edge">
<title>../components/footer.js&#45;&gt;../images/fdlp.png</title>
<path fill="none" stroke="#757575" d="M1166.12,-194.72C1219.94,-198.18 1291.92,-202.8 1345.06,-206.22"/>
<polygon fill="#757575" stroke="#757575" points="1344.72,-209.7 1354.93,-206.85 1345.17,-202.72 1344.72,-209.7"/>
</g>
<!-- ../components/icon&#45;text.js&#45;&gt;../reusable/index.js -->
<g id="edge33" class="edge">
<title>../components/icon&#45;text.js&#45;&gt;../reusable/index.js</title>
<path fill="none" stroke="#757575" d="M1840.39,-89.72C1863.58,-93.28 1886.95,-101.36 1903.75,-117.88 1974.75,-187.67 1997.01,-515.4 2001.87,-606.39"/>
<polygon fill="#757575" stroke="#757575" points="1998.37,-606.5 2002.38,-616.31 2005.36,-606.15 1998.37,-606.5"/>
</g>
<!-- ../components/header/header&#45;largescreen.js -->
<g id="node12" class="node">
<title>../components/header/header&#45;largescreen.js</title>
<path fill="none" stroke="#c6c5fe" d="M1222.58,-343.75C1222.58,-343.75 956.92,-343.75 956.92,-343.75 952.96,-343.75 949,-339.79 949,-335.83 949,-335.83 949,-327.92 949,-327.92 949,-323.96 952.96,-320 956.92,-320 956.92,-320 1222.58,-320 1222.58,-320 1226.54,-320 1230.5,-323.96 1230.5,-327.92 1230.5,-327.92 1230.5,-335.83 1230.5,-335.83 1230.5,-339.79 1226.54,-343.75 1222.58,-343.75"/>
<text xml:space="preserve" text-anchor="middle" x="1089.75" y="-326.45" font-family="Arial" font-size="14.00" fill="#c6c5fe">../components/header/header&#45;largescreen.js</text>
</g>
<!-- ../components/header/header&#45;largescreen.js&#45;&gt;../reusable/index.js -->
<g id="edge15" class="edge">
<title>../components/header/header&#45;largescreen.js&#45;&gt;../reusable/index.js</title>
<path fill="none" stroke="#757575" d="M1223.21,-319.52C1439.66,-300.63 1850.5,-270.64 1903.75,-309.88 1953.01,-346.17 1988.34,-538.97 1999.36,-606.49"/>
<polygon fill="#757575" stroke="#757575" points="1995.86,-606.76 2000.9,-616.08 2002.77,-605.65 1995.86,-606.76"/>
</g>
<!-- ../components/header/header&#45;largescreen.js&#45;&gt;../components/plain&#45;link.js -->
<g id="edge13" class="edge">
<title>../components/header/header&#45;largescreen.js&#45;&gt;../components/plain&#45;link.js</title>
<path fill="none" stroke="#757575" d="M1126.75,-319.6C1162.03,-307.92 1217.49,-290.44 1266.5,-278.88 1284.9,-274.53 1304.71,-270.6 1323.74,-267.18"/>
<polygon fill="#757575" stroke="#757575" points="1324.11,-270.67 1333.35,-265.49 1322.9,-263.78 1324.11,-270.67"/>
</g>
<!-- ../components/header/logo.js -->
<g id="node13" class="node">
<title>../components/header/logo.js</title>
<path fill="none" stroke="#cfffac" d="M1505.58,-382.75C1505.58,-382.75 1331.42,-382.75 1331.42,-382.75 1327.46,-382.75 1323.5,-378.79 1323.5,-374.83 1323.5,-374.83 1323.5,-366.92 1323.5,-366.92 1323.5,-362.96 1327.46,-359 1331.42,-359 1331.42,-359 1505.58,-359 1505.58,-359 1509.54,-359 1513.5,-362.96 1513.5,-366.92 1513.5,-366.92 1513.5,-374.83 1513.5,-374.83 1513.5,-378.79 1509.54,-382.75 1505.58,-382.75"/>
<text xml:space="preserve" text-anchor="middle" x="1418.5" y="-365.45" font-family="Arial" font-size="14.00" fill="#cfffac">../components/header/logo.js</text>
</g>
<!-- ../components/header/header&#45;largescreen.js&#45;&gt;../components/header/logo.js -->
<g id="edge11" class="edge">
<title>../components/header/header&#45;largescreen.js&#45;&gt;../components/header/logo.js</title>
<path fill="none" stroke="#757575" d="M1194.14,-344.21C1231.74,-348.7 1274.28,-353.78 1312.06,-358.29"/>
<polygon fill="#757575" stroke="#757575" points="1311.25,-361.72 1321.6,-359.43 1312.08,-354.77 1311.25,-361.72"/>
</g>
<!-- ../components/header/primary&#45;nav.js -->
<g id="node14" class="node">
<title>../components/header/primary&#45;nav.js</title>
<path fill="none" stroke="#c6c5fe" d="M1865.08,-342.75C1865.08,-342.75 1645.17,-342.75 1645.17,-342.75 1641.21,-342.75 1637.25,-338.79 1637.25,-334.83 1637.25,-334.83 1637.25,-326.92 1637.25,-326.92 1637.25,-322.96 1641.21,-319 1645.17,-319 1645.17,-319 1865.08,-319 1865.08,-319 1869.04,-319 1873,-322.96 1873,-326.92 1873,-326.92 1873,-334.83 1873,-334.83 1873,-338.79 1869.04,-342.75 1865.08,-342.75"/>
<text xml:space="preserve" text-anchor="middle" x="1755.12" y="-325.45" font-family="Arial" font-size="14.00" fill="#c6c5fe">../components/header/primary&#45;nav.js</text>
</g>
<!-- ../components/header/header&#45;largescreen.js&#45;&gt;../components/header/primary&#45;nav.js -->
<g id="edge12" class="edge">
<title>../components/header/header&#45;largescreen.js&#45;&gt;../components/header/primary&#45;nav.js</title>
<path fill="none" stroke="#757575" d="M1230.62,-331.66C1347.22,-331.49 1511.99,-331.24 1625.37,-331.07"/>
<polygon fill="#757575" stroke="#757575" points="1625.36,-334.57 1635.35,-331.05 1625.35,-327.57 1625.36,-334.57"/>
</g>
<!-- ../components/site&#45;search.js -->
<g id="node15" class="node">
<title>../components/site&#45;search.js</title>
<path fill="none" stroke="#c6c5fe" d="M1502.96,-462.75C1502.96,-462.75 1334.04,-462.75 1334.04,-462.75 1330.08,-462.75 1326.12,-458.79 1326.12,-454.83 1326.12,-454.83 1326.12,-446.92 1326.12,-446.92 1326.12,-442.96 1330.08,-439 1334.04,-439 1334.04,-439 1502.96,-439 1502.96,-439 1506.92,-439 1510.88,-442.96 1510.88,-446.92 1510.88,-446.92 1510.88,-454.83 1510.88,-454.83 1510.88,-458.79 1506.92,-462.75 1502.96,-462.75"/>
<text xml:space="preserve" text-anchor="middle" x="1418.5" y="-445.45" font-family="Arial" font-size="14.00" fill="#c6c5fe">../components/site&#45;search.js</text>
</g>
<!-- ../components/header/header&#45;largescreen.js&#45;&gt;../components/site&#45;search.js -->
<g id="edge14" class="edge">
<title>../components/header/header&#45;largescreen.js&#45;&gt;../components/site&#45;search.js</title>
<path fill="none" stroke="#757575" d="M1124.49,-344.16C1183.95,-365.82 1307.37,-410.77 1373.46,-434.84"/>
<polygon fill="#757575" stroke="#757575" points="1371.93,-438 1382.52,-438.14 1374.33,-431.43 1371.93,-438"/>
</g>
<!-- ../components/header/primary&#45;nav.js&#45;&gt;../reusable/index.js -->
<g id="edge21" class="edge">
<title>../components/header/primary&#45;nav.js&#45;&gt;../reusable/index.js</title>
<path fill="none" stroke="#757575" d="M1873.39,-339.4C1884.4,-343.66 1894.78,-349.35 1903.75,-356.88 1981.35,-422 1998.28,-553.03 2001.97,-606.43"/>
<polygon fill="#757575" stroke="#757575" points="1998.46,-606.41 2002.54,-616.18 2005.45,-606 1998.46,-606.41"/>
</g>
<!-- ../components/site&#45;search.js&#45;&gt;../components/link.js -->
<g id="edge45" class="edge">
<title>../components/site&#45;search.js&#45;&gt;../components/link.js</title>
<path fill="none" stroke="#757575" d="M1453.66,-463.24C1488.84,-477.83 1542.36,-505.6 1570.5,-547.88 1621.51,-624.52 1549.87,-679.28 1606.5,-751.88 1625.72,-776.51 1656.12,-792.2 1684.36,-802.06"/>
<polygon fill="#757575" stroke="#757575" points="1683.01,-805.3 1693.61,-805.09 1685.19,-798.65 1683.01,-805.3"/>
</g>
<!-- ../components/site&#45;search.js&#45;&gt;../reusable/index.js -->
<g id="edge47" class="edge">
<title>../components/site&#45;search.js&#45;&gt;../reusable/index.js</title>
<path fill="none" stroke="#757575" d="M1486.39,-438.57C1602.62,-418.66 1835.97,-385.66 1903.75,-427.88 1967.73,-467.73 1991.64,-562.22 1999.55,-606.38"/>
<polygon fill="#757575" stroke="#757575" points="1996.08,-606.86 2001.16,-616.15 2002.98,-605.72 1996.08,-606.86"/>
</g>
<!-- ../components/header/header&#45;media&#45;queries.js -->
<g id="node16" class="node">
<title>../components/header/header&#45;media&#45;queries.js</title>
<path fill="none" stroke="#cfffac" d="M1895.83,-460.75C1895.83,-460.75 1614.42,-460.75 1614.42,-460.75 1610.46,-460.75 1606.5,-456.79 1606.5,-452.83 1606.5,-452.83 1606.5,-444.92 1606.5,-444.92 1606.5,-440.96 1610.46,-437 1614.42,-437 1614.42,-437 1895.83,-437 1895.83,-437 1899.79,-437 1903.75,-440.96 1903.75,-444.92 1903.75,-444.92 1903.75,-452.83 1903.75,-452.83 1903.75,-456.79 1899.79,-460.75 1895.83,-460.75"/>
<text xml:space="preserve" text-anchor="middle" x="1755.12" y="-443.45" font-family="Arial" font-size="14.00" fill="#cfffac">../components/header/header&#45;media&#45;queries.js</text>
</g>
<!-- ../components/site&#45;search.js&#45;&gt;../components/header/header&#45;media&#45;queries.js -->
<g id="edge44" class="edge">
<title>../components/site&#45;search.js&#45;&gt;../components/header/header&#45;media&#45;queries.js</title>
<path fill="none" stroke="#757575" d="M1510.94,-450.33C1536.9,-450.17 1565.96,-450 1594.71,-449.83"/>
<polygon fill="#757575" stroke="#757575" points="1594.64,-453.33 1604.62,-449.77 1594.6,-446.33 1594.64,-453.33"/>
</g>
<!-- ../hooks/use&#45;google&#45;tag&#45;manager.js -->
<g id="node33" class="node">
<title>../hooks/use&#45;google&#45;tag&#45;manager.js</title>
<path fill="none" stroke="#cfffac" d="M1861.33,-502.75C1861.33,-502.75 1648.92,-502.75 1648.92,-502.75 1644.96,-502.75 1641,-498.79 1641,-494.83 1641,-494.83 1641,-486.92 1641,-486.92 1641,-482.96 1644.96,-479 1648.92,-479 1648.92,-479 1861.33,-479 1861.33,-479 1865.29,-479 1869.25,-482.96 1869.25,-486.92 1869.25,-486.92 1869.25,-494.83 1869.25,-494.83 1869.25,-498.79 1865.29,-502.75 1861.33,-502.75"/>
<text xml:space="preserve" text-anchor="middle" x="1755.12" y="-485.45" font-family="Arial" font-size="14.00" fill="#cfffac">../hooks/use&#45;google&#45;tag&#45;manager.js</text>
</g>
<!-- ../components/site&#45;search.js&#45;&gt;../hooks/use&#45;google&#45;tag&#45;manager.js -->
<g id="edge46" class="edge">
<title>../components/site&#45;search.js&#45;&gt;../hooks/use&#45;google&#45;tag&#45;manager.js</title>
<path fill="none" stroke="#757575" d="M1510.94,-461.81C1550.55,-466.54 1597.37,-472.14 1639.3,-477.15"/>
<polygon fill="#757575" stroke="#757575" points="1638.85,-480.62 1649.19,-478.33 1639.68,-473.67 1638.85,-480.62"/>
</g>
<!-- ../components/header/header&#45;smallscreen.js -->
<g id="node17" class="node">
<title>../components/header/header&#45;smallscreen.js</title>
<path fill="none" stroke="#c6c5fe" d="M905.08,-422.75C905.08,-422.75 637.17,-422.75 637.17,-422.75 633.21,-422.75 629.25,-418.79 629.25,-414.83 629.25,-414.83 629.25,-406.92 629.25,-406.92 629.25,-402.96 633.21,-399 637.17,-399 637.17,-399 905.08,-399 905.08,-399 909.04,-399 913,-402.96 913,-406.92 913,-406.92 913,-414.83 913,-414.83 913,-418.79 909.04,-422.75 905.08,-422.75"/>
<text xml:space="preserve" text-anchor="middle" x="771.12" y="-405.45" font-family="Arial" font-size="14.00" fill="#c6c5fe">../components/header/header&#45;smallscreen.js</text>
</g>
<!-- ../components/header/header&#45;smallscreen.js&#45;&gt;../reusable/index.js -->
<g id="edge18" class="edge">
<title>../components/header/header&#45;smallscreen.js&#45;&gt;../reusable/index.js</title>
<path fill="none" stroke="#757575" d="M913.25,-407.98C1212.11,-402.13 1883.31,-390.53 1903.75,-403.88 1974.23,-449.9 1994.99,-558.37 2000.83,-606.35"/>
<polygon fill="#757575" stroke="#757575" points="1997.34,-606.6 2001.9,-616.17 2004.3,-605.85 1997.34,-606.6"/>
</g>
<!-- ../components/header/header&#45;smallscreen.js&#45;&gt;../components/header/logo.js -->
<g id="edge16" class="edge">
<title>../components/header/header&#45;smallscreen.js&#45;&gt;../components/header/logo.js</title>
<path fill="none" stroke="#757575" d="M913.06,-399.42C925.21,-398.52 937.32,-397.66 949,-396.88 1073.57,-388.49 1216.92,-380.83 1311.9,-376.02"/>
<polygon fill="#757575" stroke="#757575" points="1311.92,-379.53 1321.73,-375.53 1311.56,-372.54 1311.92,-379.53"/>
</g>
<!-- ../components/header/site&#45;search&#45;modal.js -->
<g id="node18" class="node">
<title>../components/header/site&#45;search&#45;modal.js</title>
<path fill="none" stroke="#c6c5fe" d="M1218.08,-462.75C1218.08,-462.75 961.42,-462.75 961.42,-462.75 957.46,-462.75 953.5,-458.79 953.5,-454.83 953.5,-454.83 953.5,-446.92 953.5,-446.92 953.5,-442.96 957.46,-439 961.42,-439 961.42,-439 1218.08,-439 1218.08,-439 1222.04,-439 1226,-442.96 1226,-446.92 1226,-446.92 1226,-454.83 1226,-454.83 1226,-458.79 1222.04,-462.75 1218.08,-462.75"/>
<text xml:space="preserve" text-anchor="middle" x="1089.75" y="-445.45" font-family="Arial" font-size="14.00" fill="#c6c5fe">../components/header/site&#45;search&#45;modal.js</text>
</g>
<!-- ../components/header/header&#45;smallscreen.js&#45;&gt;../components/header/site&#45;search&#45;modal.js -->
<g id="edge17" class="edge">
<title>../components/header/header&#45;smallscreen.js&#45;&gt;../components/header/site&#45;search&#45;modal.js</title>
<path fill="none" stroke="#757575" d="M869.71,-423.2C904.62,-427.61 944.17,-432.61 979.97,-437.13"/>
<polygon fill="#757575" stroke="#757575" points="979.08,-440.55 989.44,-438.33 979.96,-433.6 979.08,-440.55"/>
</g>
<!-- ../components/header/site&#45;search&#45;modal.js&#45;&gt;../reusable/index.js -->
<g id="edge23" class="edge">
<title>../components/header/site&#45;search&#45;modal.js&#45;&gt;../reusable/index.js</title>
<path fill="none" stroke="#757575" d="M1193.52,-463.21C1411.28,-489.36 1899.68,-548.16 1903.75,-549.88 1935.78,-563.41 1965.88,-590.46 1984.35,-609.35"/>
<polygon fill="#757575" stroke="#757575" points="1981.75,-611.68 1991.17,-616.52 1986.82,-606.86 1981.75,-611.68"/>
</g>
<!-- ../components/header/site&#45;search&#45;modal.js&#45;&gt;../components/site&#45;search.js -->
<g id="edge22" class="edge">
<title>../components/header/site&#45;search&#45;modal.js&#45;&gt;../components/site&#45;search.js</title>
<path fill="none" stroke="#757575" d="M1226.48,-450.88C1255.92,-450.88 1286.58,-450.88 1314.51,-450.88"/>
<polygon fill="#757575" stroke="#757575" points="1314.38,-454.38 1324.38,-450.88 1314.38,-447.38 1314.38,-454.38"/>
</g>
<!-- ../components/header/index.js -->
<g id="node19" class="node">
<title>../components/header/index.js</title>
<path fill="none" stroke="#c6c5fe" d="M584.21,-422.75C584.21,-422.75 403.29,-422.75 403.29,-422.75 399.33,-422.75 395.38,-418.79 395.38,-414.83 395.38,-414.83 395.38,-406.92 395.38,-406.92 395.38,-402.96 399.33,-399 403.29,-399 403.29,-399 584.21,-399 584.21,-399 588.17,-399 592.12,-402.96 592.12,-406.92 592.12,-406.92 592.12,-414.83 592.12,-414.83 592.12,-418.79 588.17,-422.75 584.21,-422.75"/>
<text xml:space="preserve" text-anchor="middle" x="493.75" y="-405.45" font-family="Arial" font-size="14.00" fill="#c6c5fe">../components/header/index.js</text>
</g>
<!-- ../components/header/index.js&#45;&gt;../components/header/header&#45;largescreen.js -->
<g id="edge19" class="edge">
<title>../components/header/index.js&#45;&gt;../components/header/header&#45;largescreen.js</title>
<path fill="none" stroke="#757575" d="M571.16,-398.55C590.12,-395.6 610.41,-392.53 629.25,-389.88 745.81,-373.42 879.32,-356.82 972.28,-345.62"/>
<polygon fill="#757575" stroke="#757575" points="972.68,-349.1 982.19,-344.43 971.85,-342.15 972.68,-349.1"/>
</g>
<!-- ../components/header/index.js&#45;&gt;../components/header/header&#45;smallscreen.js -->
<g id="edge20" class="edge">
<title>../components/header/index.js&#45;&gt;../components/header/header&#45;smallscreen.js</title>
<path fill="none" stroke="#757575" d="M592.61,-410.88C600.89,-410.88 609.38,-410.88 617.94,-410.88"/>
<polygon fill="#757575" stroke="#757575" points="617.71,-414.38 627.71,-410.88 617.71,-407.38 617.71,-414.38"/>
</g>
<!-- ../components/html.js -->
<g id="node20" class="node">
<title>../components/html.js</title>
<path fill="none" stroke="#c6c5fe" d="M1154.33,-722.75C1154.33,-722.75 1025.17,-722.75 1025.17,-722.75 1021.21,-722.75 1017.25,-718.79 1017.25,-714.83 1017.25,-714.83 1017.25,-706.92 1017.25,-706.92 1017.25,-702.96 1021.21,-699 1025.17,-699 1025.17,-699 1154.33,-699 1154.33,-699 1158.29,-699 1162.25,-702.96 1162.25,-706.92 1162.25,-706.92 1162.25,-714.83 1162.25,-714.83 1162.25,-718.79 1158.29,-722.75 1154.33,-722.75"/>
<text xml:space="preserve" text-anchor="middle" x="1089.75" y="-705.45" font-family="Arial" font-size="14.00" fill="#c6c5fe">../components/html.js</text>
</g>
<!-- ../components/html.js&#45;&gt;../components/link.js -->
<g id="edge25" class="edge">
<title>../components/html.js&#45;&gt;../components/link.js</title>
<path fill="none" stroke="#757575" d="M1113.84,-723.12C1146.71,-739.9 1209.36,-769.48 1266.5,-782.88 1407.19,-815.85 1576.43,-820.45 1674.01,-819.82"/>
<polygon fill="#757575" stroke="#757575" points="1673.78,-823.33 1683.75,-819.74 1673.72,-816.33 1673.78,-823.33"/>
</g>
<!-- ../components/html.js&#45;&gt;../reusable/index.js -->
<g id="edge31" class="edge">
<title>../components/html.js&#45;&gt;../reusable/index.js</title>
<path fill="none" stroke="#757575" d="M1162.6,-723.08C1336.21,-751.22 1773.81,-813.67 1903.75,-751.88 1947.04,-731.29 1977.63,-681.55 1992.59,-652.34"/>
<polygon fill="#757575" stroke="#757575" points="1995.61,-654.13 1996.88,-643.61 1989.32,-651.04 1995.61,-654.13"/>
</g>
<!-- ../components/html.js&#45;&gt;../components/drupal&#45;entity.js -->
<g id="edge24" class="edge">
<title>../components/html.js&#45;&gt;../components/drupal&#45;entity.js</title>
<path fill="none" stroke="#757575" d="M1109.73,-723.19C1164.66,-758.83 1324.01,-862.22 1389.2,-904.51"/>
<polygon fill="#757575" stroke="#757575" points="1386.9,-907.2 1397.2,-909.7 1390.71,-901.32 1386.9,-907.2"/>
</g>
<!-- ../components/prose.js -->
<g id="node21" class="node">
<title>../components/prose.js</title>
<path fill="none" stroke="#c6c5fe" d="M1823.46,-742.75C1823.46,-742.75 1686.79,-742.75 1686.79,-742.75 1682.83,-742.75 1678.88,-738.79 1678.88,-734.83 1678.88,-734.83 1678.88,-726.92 1678.88,-726.92 1678.88,-722.96 1682.83,-719 1686.79,-719 1686.79,-719 1823.46,-719 1823.46,-719 1827.42,-719 1831.38,-722.96 1831.38,-726.92 1831.38,-726.92 1831.38,-734.83 1831.38,-734.83 1831.38,-738.79 1827.42,-742.75 1823.46,-742.75"/>
<text xml:space="preserve" text-anchor="middle" x="1755.12" y="-725.45" font-family="Arial" font-size="14.00" fill="#c6c5fe">../components/prose.js</text>
</g>
<!-- ../components/html.js&#45;&gt;../components/prose.js -->
<g id="edge26" class="edge">
<title>../components/html.js&#45;&gt;../components/prose.js</title>
<path fill="none" stroke="#757575" d="M1162.69,-713.04C1285.48,-716.75 1535.04,-724.27 1667.31,-728.26"/>
<polygon fill="#757575" stroke="#757575" points="1666.96,-731.75 1677.06,-728.55 1667.17,-724.75 1666.96,-731.75"/>
</g>
<!-- ../components/table.js -->
<g id="node22" class="node">
<title>../components/table.js</title>
<path fill="none" stroke="#c6c5fe" d="M1821.21,-700.75C1821.21,-700.75 1689.04,-700.75 1689.04,-700.75 1685.08,-700.75 1681.12,-696.79 1681.12,-692.83 1681.12,-692.83 1681.12,-684.92 1681.12,-684.92 1681.12,-680.96 1685.08,-677 1689.04,-677 1689.04,-677 1821.21,-677 1821.21,-677 1825.17,-677 1829.12,-680.96 1829.12,-684.92 1829.12,-684.92 1829.12,-692.83 1829.12,-692.83 1829.12,-696.79 1825.17,-700.75 1821.21,-700.75"/>
<text xml:space="preserve" text-anchor="middle" x="1755.12" y="-683.45" font-family="Arial" font-size="14.00" fill="#c6c5fe">../components/table.js</text>
</g>
<!-- ../components/html.js&#45;&gt;../components/table.js -->
<g id="edge27" class="edge">
<title>../components/html.js&#45;&gt;../components/table.js</title>
<path fill="none" stroke="#757575" d="M1131.47,-698.57C1166.8,-688.58 1219.5,-675.28 1266.5,-669.88 1407.17,-653.68 1572,-666.73 1669.49,-677.74"/>
<polygon fill="#757575" stroke="#757575" points="1668.91,-681.2 1679.25,-678.87 1669.71,-674.24 1668.91,-681.2"/>
</g>
<!-- ../reusable/blockquote.js -->
<g id="node23" class="node">
<title>../reusable/blockquote.js</title>
<path fill="none" stroke="#c6c5fe" d="M1491.33,-622.75C1491.33,-622.75 1345.67,-622.75 1345.67,-622.75 1341.71,-622.75 1337.75,-618.79 1337.75,-614.83 1337.75,-614.83 1337.75,-606.92 1337.75,-606.92 1337.75,-602.96 1341.71,-599 1345.67,-599 1345.67,-599 1491.33,-599 1491.33,-599 1495.29,-599 1499.25,-602.96 1499.25,-606.92 1499.25,-606.92 1499.25,-614.83 1499.25,-614.83 1499.25,-618.79 1495.29,-622.75 1491.33,-622.75"/>
<text xml:space="preserve" text-anchor="middle" x="1418.5" y="-605.45" font-family="Arial" font-size="14.00" fill="#c6c5fe">../reusable/blockquote.js</text>
</g>
<!-- ../components/html.js&#45;&gt;../reusable/blockquote.js -->
<g id="edge28" class="edge">
<title>../components/html.js&#45;&gt;../reusable/blockquote.js</title>
<path fill="none" stroke="#757575" d="M1115.13,-698.5C1148.48,-682.07 1210.58,-653.23 1266.5,-636.88 1285.58,-631.29 1306.4,-626.76 1326.3,-623.13"/>
<polygon fill="#757575" stroke="#757575" points="1326.84,-626.59 1336.08,-621.41 1325.63,-619.69 1326.84,-626.59"/>
</g>
<!-- ../reusable/call&#45;to&#45;action.js -->
<g id="node24" class="node">
<title>../reusable/call&#45;to&#45;action.js</title>
<path fill="none" stroke="#c6c5fe" d="M1496.96,-580.75C1496.96,-580.75 1340.04,-580.75 1340.04,-580.75 1336.08,-580.75 1332.12,-576.79 1332.12,-572.83 1332.12,-572.83 1332.12,-564.92 1332.12,-564.92 1332.12,-560.96 1336.08,-557 1340.04,-557 1340.04,-557 1496.96,-557 1496.96,-557 1500.92,-557 1504.88,-560.96 1504.88,-564.92 1504.88,-564.92 1504.88,-572.83 1504.88,-572.83 1504.88,-576.79 1500.92,-580.75 1496.96,-580.75"/>
<text xml:space="preserve" text-anchor="middle" x="1418.5" y="-563.45" font-family="Arial" font-size="14.00" fill="#c6c5fe">../reusable/call&#45;to&#45;action.js</text>
</g>
<!-- ../components/html.js&#45;&gt;../reusable/call&#45;to&#45;action.js -->
<g id="edge29" class="edge">
<title>../components/html.js&#45;&gt;../reusable/call&#45;to&#45;action.js</title>
<path fill="none" stroke="#757575" d="M1103.61,-698.77C1131.07,-673.71 1198.48,-616.3 1266.5,-589.88 1283.46,-583.29 1302.19,-578.72 1320.53,-575.57"/>
<polygon fill="#757575" stroke="#757575" points="1321.05,-579.03 1330.38,-574.02 1319.96,-572.12 1321.05,-579.03"/>
</g>
<!-- ../reusable/callout.js -->
<g id="node25" class="node">
<title>../reusable/callout.js</title>
<path fill="none" stroke="#c6c5fe" d="M1814.83,-582.75C1814.83,-582.75 1695.42,-582.75 1695.42,-582.75 1691.46,-582.75 1687.5,-578.79 1687.5,-574.83 1687.5,-574.83 1687.5,-566.92 1687.5,-566.92 1687.5,-562.96 1691.46,-559 1695.42,-559 1695.42,-559 1814.83,-559 1814.83,-559 1818.79,-559 1822.75,-562.96 1822.75,-566.92 1822.75,-566.92 1822.75,-574.83 1822.75,-574.83 1822.75,-578.79 1818.79,-582.75 1814.83,-582.75"/>
<text xml:space="preserve" text-anchor="middle" x="1755.12" y="-565.45" font-family="Arial" font-size="14.00" fill="#c6c5fe">../reusable/callout.js</text>
</g>
<!-- ../components/html.js&#45;&gt;../reusable/callout.js -->
<g id="edge30" class="edge">
<title>../components/html.js&#45;&gt;../reusable/callout.js</title>
<path fill="none" stroke="#757575" d="M1098.79,-698.7C1120.89,-666.49 1186.31,-579.34 1266.5,-547.88 1338.82,-519.5 1557.65,-543.56 1676.05,-559.51"/>
<polygon fill="#757575" stroke="#757575" points="1675.3,-562.94 1685.68,-560.82 1676.25,-556 1675.3,-562.94"/>
</g>
<!-- ../utils/rehype&#45;drupal&#45;entity.js -->
<g id="node26" class="node">
<title>../utils/rehype&#45;drupal&#45;entity.js</title>
<path fill="none" stroke="#cfffac" d="M1504.46,-702.75C1504.46,-702.75 1332.54,-702.75 1332.54,-702.75 1328.58,-702.75 1324.62,-698.79 1324.62,-694.83 1324.62,-694.83 1324.62,-686.92 1324.62,-686.92 1324.62,-682.96 1328.58,-679 1332.54,-679 1332.54,-679 1504.46,-679 1504.46,-679 1508.42,-679 1512.38,-682.96 1512.38,-686.92 1512.38,-686.92 1512.38,-694.83 1512.38,-694.83 1512.38,-698.79 1508.42,-702.75 1504.46,-702.75"/>
<text xml:space="preserve" text-anchor="middle" x="1418.5" y="-685.45" font-family="Arial" font-size="14.00" fill="#cfffac">../utils/rehype&#45;drupal&#45;entity.js</text>
</g>
<!-- ../components/html.js&#45;&gt;../utils/rehype&#45;drupal&#45;entity.js -->
<g id="edge32" class="edge">
<title>../components/html.js&#45;&gt;../utils/rehype&#45;drupal&#45;entity.js</title>
<path fill="none" stroke="#757575" d="M1162.46,-706.49C1206.55,-703.79 1263.82,-700.28 1312.91,-697.28"/>
<polygon fill="#757575" stroke="#757575" points="1312.95,-700.78 1322.71,-696.68 1312.52,-693.79 1312.95,-700.78"/>
</g>
<!-- ../components/prose.js&#45;&gt;../reusable/index.js -->
<g id="edge42" class="edge">
<title>../components/prose.js&#45;&gt;../reusable/index.js</title>
<path fill="none" stroke="#757575" d="M1831.84,-727.94C1855.6,-724.98 1881.43,-719.57 1903.75,-709.88 1935.64,-696.02 1965.77,-669.04 1984.29,-650.26"/>
<polygon fill="#757575" stroke="#757575" points="1986.73,-652.77 1991.13,-643.13 1981.68,-647.93 1986.73,-652.77"/>
</g>
<!-- ../components/table.js&#45;&gt;../reusable/index.js -->
<g id="edge48" class="edge">
<title>../components/table.js&#45;&gt;../reusable/index.js</title>
<path fill="none" stroke="#757575" d="M1829.41,-678.15C1853.27,-674.08 1879.78,-668.94 1903.75,-662.88 1922.23,-658.2 1942.25,-651.81 1959.44,-645.9"/>
<polygon fill="#757575" stroke="#757575" points="1960.56,-649.21 1968.85,-642.6 1958.25,-642.6 1960.56,-649.21"/>
</g>
<!-- ../reusable/blockquote.js&#45;&gt;../reusable/index.js -->
<g id="edge49" class="edge">
<title>../reusable/blockquote.js&#45;&gt;../reusable/index.js</title>
<path fill="none" stroke="#757575" d="M1499.51,-617.96C1532.6,-620.61 1571.37,-623.34 1606.5,-624.88 1718.43,-629.77 1848.29,-630.46 1928.05,-630.31"/>
<polygon fill="#757575" stroke="#757575" points="1927.94,-633.82 1937.93,-630.29 1927.92,-626.82 1927.94,-633.82"/>
</g>
<!-- ../reusable/call&#45;to&#45;action.js&#45;&gt;../reusable/index.js -->
<g id="edge52" class="edge">
<title>../reusable/call&#45;to&#45;action.js&#45;&gt;../reusable/index.js</title>
<path fill="none" stroke="#757575" d="M1505.09,-579.89C1536.91,-583.86 1573.33,-588.25 1606.5,-591.88 1718.38,-604.11 1848.25,-616.15 1928.03,-623.29"/>
<polygon fill="#757575" stroke="#757575" points="1927.65,-626.77 1937.92,-624.18 1928.27,-619.8 1927.65,-626.77"/>
</g>
<!-- ../reusable/callout.js&#45;&gt;../reusable/index.js -->
<g id="edge53" class="edge">
<title>../reusable/callout.js&#45;&gt;../reusable/index.js</title>
<path fill="none" stroke="#757575" d="M1823.07,-580.53C1848.51,-584.76 1877.64,-590.27 1903.75,-596.88 1922.23,-601.55 1942.25,-607.94 1959.44,-613.85"/>
<polygon fill="#757575" stroke="#757575" points="1958.25,-617.15 1968.85,-617.15 1960.56,-610.54 1958.25,-617.15"/>
</g>
<!-- ../components/layout.js -->
<g id="node27" class="node">
<title>../components/layout.js</title>
<path fill="none" stroke="#c6c5fe" d="M299.71,-611.75C299.71,-611.75 160.79,-611.75 160.79,-611.75 156.83,-611.75 152.88,-607.79 152.88,-603.83 152.88,-603.83 152.88,-595.92 152.88,-595.92 152.88,-591.96 156.83,-588 160.79,-588 160.79,-588 299.71,-588 299.71,-588 303.67,-588 307.62,-591.96 307.62,-595.92 307.62,-595.92 307.62,-603.83 307.62,-603.83 307.62,-607.79 303.67,-611.75 299.71,-611.75"/>
<text xml:space="preserve" text-anchor="middle" x="230.25" y="-594.45" font-family="Arial" font-size="14.00" fill="#c6c5fe">../components/layout.js</text>
</g>
<!-- ../components/layout.js&#45;&gt;../reusable/index.js -->
<g id="edge38" class="edge">
<title>../components/layout.js&#45;&gt;../reusable/index.js</title>
<path fill="none" stroke="#757575" d="M308.04,-602.73C326.78,-599.6 345.18,-592.66 358.25,-578.88 407.81,-526.64 354.11,-316.65 394.25,-256.88 500.34,-98.91 579.84,-51.88 770.12,-51.88 770.12,-51.88 770.12,-51.88 1419.5,-51.88 1634.89,-51.88 1741.42,70.69 1903.75,-70.88 1986.04,-142.64 2000.23,-508.87 2002.56,-606.13"/>
<polygon fill="#757575" stroke="#757575" points="1999.06,-606.12 2002.78,-616.04 2006.06,-605.97 1999.06,-606.12"/>
</g>
<!-- ../components/layout.js&#45;&gt;../components/footer.js -->
<g id="edge35" class="edge">
<title>../components/layout.js&#45;&gt;../components/footer.js</title>
<path fill="none" stroke="#757575" d="M308.01,-601.93C326.52,-598.75 344.82,-591.99 358.25,-578.88 419.45,-519.15 336.63,-453.06 394.25,-389.88 553.37,-215.36 853.94,-189.35 1001.94,-187.81"/>
<polygon fill="#757575" stroke="#757575" points="1001.7,-191.31 1011.68,-187.75 1001.66,-184.31 1001.7,-191.31"/>
</g>
<!-- ../components/layout.js&#45;&gt;../components/header/index.js -->
<g id="edge36" class="edge">
<title>../components/layout.js&#45;&gt;../components/header/index.js</title>
<path fill="none" stroke="#757575" d="M307.92,-596.37C325.32,-593.14 343.11,-587.74 358.25,-578.88 418.44,-543.63 462.37,-470.45 481.75,-433.4"/>
<polygon fill="#757575" stroke="#757575" points="484.86,-435 486.28,-424.5 478.62,-431.82 484.86,-435"/>
</g>
<!-- ../hooks/use&#45;navigation&#45;data.js -->
<g id="node28" class="node">
<title>../hooks/use&#45;navigation&#45;data.js</title>
<path fill="none" stroke="#cfffac" d="M585.33,-611.75C585.33,-611.75 402.17,-611.75 402.17,-611.75 398.21,-611.75 394.25,-607.79 394.25,-603.83 394.25,-603.83 394.25,-595.92 394.25,-595.92 394.25,-591.96 398.21,-588 402.17,-588 402.17,-588 585.33,-588 585.33,-588 589.29,-588 593.25,-591.96 593.25,-595.92 593.25,-595.92 593.25,-603.83 593.25,-603.83 593.25,-607.79 589.29,-611.75 585.33,-611.75"/>
<text xml:space="preserve" text-anchor="middle" x="493.75" y="-594.45" font-family="Arial" font-size="14.00" fill="#cfffac">../hooks/use&#45;navigation&#45;data.js</text>
</g>
<!-- ../components/layout.js&#45;&gt;../hooks/use&#45;navigation&#45;data.js -->
<g id="edge37" class="edge">
<title>../components/layout.js&#45;&gt;../hooks/use&#45;navigation&#45;data.js</title>
<path fill="none" stroke="#757575" d="M307.94,-599.88C331.34,-599.88 357.53,-599.88 382.68,-599.88"/>
<polygon fill="#757575" stroke="#757575" points="382.63,-603.38 392.63,-599.88 382.63,-596.38 382.63,-603.38"/>
</g>
<!-- ../components/link&#45;callout.js -->
<g id="node29" class="node">
<title>../components/link&#45;callout.js</title>
<path fill="none" stroke="#c6c5fe" d="M854.46,-1094.75C854.46,-1094.75 687.79,-1094.75 687.79,-1094.75 683.83,-1094.75 679.88,-1090.79 679.88,-1086.83 679.88,-1086.83 679.88,-1078.92 679.88,-1078.92 679.88,-1074.96 683.83,-1071 687.79,-1071 687.79,-1071 854.46,-1071 854.46,-1071 858.42,-1071 862.38,-1074.96 862.38,-1078.92 862.38,-1078.92 862.38,-1086.83 862.38,-1086.83 862.38,-1090.79 858.42,-1094.75 854.46,-1094.75"/>
<text xml:space="preserve" text-anchor="middle" x="771.12" y="-1077.45" font-family="Arial" font-size="14.00" fill="#c6c5fe">../components/link&#45;callout.js</text>
</g>
<!-- ../components/link&#45;callout.js&#45;&gt;../reusable/index.js -->
<g id="edge39" class="edge">
<title>../components/link&#45;callout.js&#45;&gt;../reusable/index.js</title>
<path fill="none" stroke="#757575" d="M806.65,-1095.22C957.56,-1146.8 1566.8,-1329.58 1903.75,-1048.88 1965.9,-997.1 1993.9,-733.41 2001.07,-653.11"/>
<polygon fill="#757575" stroke="#757575" points="2004.54,-653.63 2001.92,-643.37 1997.57,-653.03 2004.54,-653.63"/>
</g>
<!-- ../components/page&#45;layout.js -->
<g id="node30" class="node">
<title>../components/page&#45;layout.js</title>
<path fill="none" stroke="#c6c5fe" d="M857.83,-1052.75C857.83,-1052.75 684.42,-1052.75 684.42,-1052.75 680.46,-1052.75 676.5,-1048.79 676.5,-1044.83 676.5,-1044.83 676.5,-1036.92 676.5,-1036.92 676.5,-1032.96 680.46,-1029 684.42,-1029 684.42,-1029 857.83,-1029 857.83,-1029 861.79,-1029 865.75,-1032.96 865.75,-1036.92 865.75,-1036.92 865.75,-1044.83 865.75,-1044.83 865.75,-1048.79 861.79,-1052.75 857.83,-1052.75"/>
<text xml:space="preserve" text-anchor="middle" x="771.12" y="-1035.45" font-family="Arial" font-size="14.00" fill="#c6c5fe">../components/page&#45;layout.js</text>
</g>
<!-- ../components/page&#45;layout.js&#45;&gt;../reusable/index.js -->
<g id="edge41" class="edge">
<title>../components/page&#45;layout.js&#45;&gt;../reusable/index.js</title>
<path fill="none" stroke="#757575" d="M865.8,-1045.08C1122.49,-1055.72 1823.46,-1078.58 1903.75,-1014.88 1961.76,-968.85 1992.25,-729.54 2000.6,-653.26"/>
<polygon fill="#757575" stroke="#757575" points="2004.05,-653.92 2001.63,-643.6 1997.09,-653.18 2004.05,-653.92"/>
</g>
<!-- ../components/seo.js -->
<g id="node31" class="node">
<title>../components/seo.js</title>
<path fill="none" stroke="#c6c5fe" d="M292.58,-569.75C292.58,-569.75 167.92,-569.75 167.92,-569.75 163.96,-569.75 160,-565.79 160,-561.83 160,-561.83 160,-553.92 160,-553.92 160,-549.96 163.96,-546 167.92,-546 167.92,-546 292.58,-546 292.58,-546 296.54,-546 300.5,-549.96 300.5,-553.92 300.5,-553.92 300.5,-561.83 300.5,-561.83 300.5,-565.79 296.54,-569.75 292.58,-569.75"/>
<text xml:space="preserve" text-anchor="middle" x="230.25" y="-552.45" font-family="Arial" font-size="14.00" fill="#c6c5fe">../components/seo.js</text>
</g>
<!-- ../images/squarelogo.png -->
<g id="node32" class="node">
<title>../images/squarelogo.png</title>
<path fill="none" stroke="#cfffac" d="M569.96,-23.75C569.96,-23.75 417.54,-23.75 417.54,-23.75 413.58,-23.75 409.62,-19.79 409.62,-15.83 409.62,-15.83 409.62,-7.92 409.62,-7.92 409.62,-3.96 413.58,0 417.54,0 417.54,0 569.96,0 569.96,0 573.92,0 577.88,-3.96 577.88,-7.92 577.88,-7.92 577.88,-15.83 577.88,-15.83 577.88,-19.79 573.92,-23.75 569.96,-23.75"/>
<text xml:space="preserve" text-anchor="middle" x="493.75" y="-6.45" font-family="Arial" font-size="14.00" fill="#cfffac">../images/squarelogo.png</text>
</g>
<!-- ../components/seo.js&#45;&gt;../images/squarelogo.png -->
<g id="edge43" class="edge">
<title>../components/seo.js&#45;&gt;../images/squarelogo.png</title>
<path fill="none" stroke="#757575" d="M300.79,-562.13C322.09,-559.71 343.72,-552.81 358.25,-536.88 433.17,-454.73 323.28,-123.45 394.25,-37.88 396.55,-35.11 399.1,-32.61 401.86,-30.37"/>
<polygon fill="#757575" stroke="#757575" points="403.68,-33.36 410.02,-24.86 399.77,-27.55 403.68,-33.36"/>
</g>
<!-- ../components/staff&#45;photo&#45;placeholder.js -->
<g id="node34" class="node">
<title>../components/staff&#45;photo&#45;placeholder.js</title>
<path fill="none" stroke="#cfffac" d="M350.33,-527.75C350.33,-527.75 110.17,-527.75 110.17,-527.75 106.21,-527.75 102.25,-523.79 102.25,-519.83 102.25,-519.83 102.25,-511.92 102.25,-511.92 102.25,-507.96 106.21,-504 110.17,-504 110.17,-504 350.33,-504 350.33,-504 354.29,-504 358.25,-507.96 358.25,-511.92 358.25,-511.92 358.25,-519.83 358.25,-519.83 358.25,-523.79 354.29,-527.75 350.33,-527.75"/>
<text xml:space="preserve" text-anchor="middle" x="230.25" y="-510.45" font-family="Arial" font-size="14.00" fill="#cfffac">../components/staff&#45;photo&#45;placeholder.js</text>
</g>
<!-- ../reusable/breadcrumb.js&#45;&gt;../reusable/index.js -->
<g id="edge50" class="edge">
<title>../reusable/breadcrumb.js&#45;&gt;../reusable/index.js</title>
<path fill="none" stroke="#757575" d="M2120.73,-935.56C2114.77,-932.73 2109.18,-929.21 2104.25,-924.88 2022.47,-852.87 2008.05,-709.92 2005.53,-653.38"/>
<polygon fill="#757575" stroke="#757575" points="2009.04,-653.48 2005.19,-643.61 2002.04,-653.73 2009.04,-653.48"/>
</g>
<!-- ../reusable/button.js&#45;&gt;../reusable/index.js -->
<g id="edge51" class="edge">
<title>../reusable/button.js&#45;&gt;../reusable/index.js</title>
<path fill="none" stroke="#757575" d="M2137.95,-899.21C2125.75,-896.08 2113.85,-890.89 2104.25,-882.88 2032.9,-823.29 2012.28,-704.49 2006.82,-653.57"/>
<polygon fill="#757575" stroke="#757575" points="2010.31,-653.3 2005.87,-643.68 2003.34,-653.96 2010.31,-653.3"/>
</g>
<!-- ../reusable/card&#45;image.js -->
<g id="node38" class="node">
<title>../reusable/card&#45;image.js</title>
<path fill="none" stroke="#ff6c60" d="M2562.58,-864.75C2562.58,-864.75 2413.92,-864.75 2413.92,-864.75 2409.96,-864.75 2406,-860.79 2406,-856.83 2406,-856.83 2406,-848.92 2406,-848.92 2406,-844.96 2409.96,-841 2413.92,-841 2413.92,-841 2562.58,-841 2562.58,-841 2566.54,-841 2570.5,-844.96 2570.5,-848.92 2570.5,-848.92 2570.5,-856.83 2570.5,-856.83 2570.5,-860.79 2566.54,-864.75 2562.58,-864.75"/>
<text xml:space="preserve" text-anchor="middle" x="2488.25" y="-847.45" font-family="Arial" font-size="14.00" fill="#ff6c60">../reusable/card&#45;image.js</text>
</g>
<!-- ../reusable/card&#45;image.js&#45;&gt;../reusable/index.js -->
<g id="edge54" class="edge">
<title>../reusable/card&#45;image.js&#45;&gt;../reusable/index.js</title>
<path fill="none" stroke="#757575" d="M2405.71,-842.11C2296.98,-827.49 2116.67,-802.23 2104.25,-793.88 2053.15,-759.48 2024.06,-689.1 2011.87,-652.74"/>
<polygon fill="#757575" stroke="#757575" points="2015.21,-651.72 2008.83,-643.26 2008.55,-653.85 2015.21,-651.72"/>
</g>
<!-- ../reusable/card.js&#45;&gt;../reusable/index.js -->
<g id="edge56" class="edge">
<title>../reusable/card.js&#45;&gt;../reusable/index.js</title>
<path fill="none" stroke="#757575" d="M2143.54,-854.48C2129.54,-850.88 2115.49,-844.95 2104.25,-835.88 2045.27,-788.26 2018.16,-696.51 2008.9,-653.18"/>
<polygon fill="#757575" stroke="#757575" points="2012.37,-652.7 2007,-643.57 2005.51,-654.06 2012.37,-652.7"/>
</g>
<!-- ../reusable/card.js&#45;&gt;../reusable/card&#45;image.js -->
<g id="edge55" class="edge">
<title>../reusable/card.js&#45;&gt;../reusable/card&#45;image.js</title>
<path fill="none" stroke="#757575" d="M2266.88,-852.88C2304.05,-852.88 2352.38,-852.88 2394.31,-852.88"/>
<polygon fill="#757575" stroke="#757575" points="2394.16,-856.38 2404.16,-852.88 2394.16,-849.38 2394.16,-856.38"/>
</g>
<!-- ../reusable/expandable/expandable&#45;button.js -->
<g id="node41" class="node">
<title>../reusable/expandable/expandable&#45;button.js</title>
<path fill="none" stroke="#ff6c60" d="M2621.08,-700.75C2621.08,-700.75 2355.42,-700.75 2355.42,-700.75 2351.46,-700.75 2347.5,-696.79 2347.5,-692.83 2347.5,-692.83 2347.5,-684.92 2347.5,-684.92 2347.5,-680.96 2351.46,-677 2355.42,-677 2355.42,-677 2621.08,-677 2621.08,-677 2625.04,-677 2629,-680.96 2629,-684.92 2629,-684.92 2629,-692.83 2629,-692.83 2629,-696.79 2625.04,-700.75 2621.08,-700.75"/>
<text xml:space="preserve" text-anchor="middle" x="2488.25" y="-683.45" font-family="Arial" font-size="14.00" fill="#ff6c60">../reusable/expandable/expandable&#45;button.js</text>
</g>
<!-- ../reusable/expandable/expandable&#45;button.js&#45;&gt;../reusable/index.js -->
<g id="edge58" class="edge">
<title>../reusable/expandable/expandable&#45;button.js&#45;&gt;../reusable/index.js</title>
<path fill="none" stroke="#757575" d="M2347.4,-694.5C2274.15,-694.48 2183.45,-689.78 2104.25,-671.88 2081.11,-666.64 2056.54,-656.29 2037.63,-647.17"/>
<polygon fill="#757575" stroke="#757575" points="2039.35,-644.12 2028.84,-642.8 2036.24,-650.39 2039.35,-644.12"/>
</g>
<!-- ../reusable/expandable/expandable.js -->
<g id="node42" class="node">
<title>../reusable/expandable/expandable.js</title>
<path fill="none" stroke="#cfffac" d="M2901.83,-762.75C2901.83,-762.75 2678.17,-762.75 2678.17,-762.75 2674.21,-762.75 2670.25,-758.79 2670.25,-754.83 2670.25,-754.83 2670.25,-746.92 2670.25,-746.92 2670.25,-742.96 2674.21,-739 2678.17,-739 2678.17,-739 2901.83,-739 2901.83,-739 2905.79,-739 2909.75,-742.96 2909.75,-746.92 2909.75,-746.92 2909.75,-754.83 2909.75,-754.83 2909.75,-758.79 2905.79,-762.75 2901.83,-762.75"/>
<text xml:space="preserve" text-anchor="middle" x="2790" y="-745.45" font-family="Arial" font-size="14.00" fill="#cfffac">../reusable/expandable/expandable.js</text>
</g>
<!-- ../reusable/expandable/expandable&#45;button.js&#45;&gt;../reusable/expandable/expandable.js -->
<g id="edge57" class="edge">
<title>../reusable/expandable/expandable&#45;button.js&#45;&gt;../reusable/expandable/expandable.js</title>
<path fill="none" stroke="#757575" d="M2585.46,-701.22C2601.79,-703.77 2618.55,-706.67 2634.25,-709.88 2668.66,-716.9 2706.8,-726.98 2736.61,-735.39"/>
<polygon fill="#757575" stroke="#757575" points="2735.57,-738.73 2746.14,-738.1 2737.49,-732 2735.57,-738.73"/>
</g>
<!-- ../reusable/expandable/expandable&#45;children.js -->
<g id="node43" class="node">
<title>../reusable/expandable/expandable&#45;children.js</title>
<path fill="none" stroke="#c6c5fe" d="M2625.96,-742.75C2625.96,-742.75 2350.54,-742.75 2350.54,-742.75 2346.58,-742.75 2342.62,-738.79 2342.62,-734.83 2342.62,-734.83 2342.62,-726.92 2342.62,-726.92 2342.62,-722.96 2346.58,-719 2350.54,-719 2350.54,-719 2625.96,-719 2625.96,-719 2629.92,-719 2633.88,-722.96 2633.88,-726.92 2633.88,-726.92 2633.88,-734.83 2633.88,-734.83 2633.88,-738.79 2629.92,-742.75 2625.96,-742.75"/>
<text xml:space="preserve" text-anchor="middle" x="2488.25" y="-725.45" font-family="Arial" font-size="14.00" fill="#c6c5fe">../reusable/expandable/expandable&#45;children.js</text>
</g>
<!-- ../reusable/expandable/expandable&#45;children.js&#45;&gt;../reusable/expandable/expandable.js -->
<g id="edge59" class="edge">
<title>../reusable/expandable/expandable&#45;children.js&#45;&gt;../reusable/expandable/expandable.js</title>
<path fill="none" stroke="#757575" d="M2634.3,-740.55C2642.42,-741.09 2650.57,-741.64 2658.63,-742.18"/>
<polygon fill="#757575" stroke="#757575" points="2658.26,-745.66 2668.47,-742.83 2658.72,-738.67 2658.26,-745.66"/>
</g>
<!-- ../reusable/expandable/expandable&#45;provider.js -->
<g id="node44" class="node">
<title>../reusable/expandable/expandable&#45;provider.js</title>
<path fill="none" stroke="#c6c5fe" d="M2626.33,-822.75C2626.33,-822.75 2350.17,-822.75 2350.17,-822.75 2346.21,-822.75 2342.25,-818.79 2342.25,-814.83 2342.25,-814.83 2342.25,-806.92 2342.25,-806.92 2342.25,-802.96 2346.21,-799 2350.17,-799 2350.17,-799 2626.33,-799 2626.33,-799 2630.29,-799 2634.25,-802.96 2634.25,-806.92 2634.25,-806.92 2634.25,-814.83 2634.25,-814.83 2634.25,-818.79 2630.29,-822.75 2626.33,-822.75"/>
<text xml:space="preserve" text-anchor="middle" x="2488.25" y="-805.45" font-family="Arial" font-size="14.00" fill="#c6c5fe">../reusable/expandable/expandable&#45;provider.js</text>
</g>
<!-- ../reusable/expandable/expandable&#45;provider.js&#45;&gt;../reusable/expandable/expandable.js -->
<g id="edge60" class="edge">
<title>../reusable/expandable/expandable&#45;provider.js&#45;&gt;../reusable/expandable/expandable.js</title>
<path fill="none" stroke="#757575" d="M2561.26,-798.53C2584.59,-794.38 2610.55,-789.6 2634.25,-784.88 2663.89,-778.96 2696.59,-771.87 2724.26,-765.69"/>
<polygon fill="#757575" stroke="#757575" points="2724.93,-769.12 2733.92,-763.52 2723.39,-762.29 2724.93,-769.12"/>
</g>
<!-- ../reusable/expandable/index.js&#45;&gt;../reusable/expandable/expandable&#45;button.js -->
<g id="edge61" class="edge">
<title>../reusable/expandable/index.js&#45;&gt;../reusable/expandable/expandable&#45;button.js</title>
<path fill="none" stroke="#757575" d="M2285.34,-718.53C2304,-715.66 2323.82,-712.63 2342.25,-709.88 2357.68,-707.57 2374.04,-705.16 2390,-702.83"/>
<polygon fill="#757575" stroke="#757575" points="2390.08,-706.36 2399.48,-701.45 2389.08,-699.43 2390.08,-706.36"/>
</g>
<!-- ../reusable/expandable/index.js&#45;&gt;../reusable/expandable/expandable.js -->
<g id="edge64" class="edge">
<title>../reusable/expandable/index.js&#45;&gt;../reusable/expandable/expandable.js</title>
<path fill="none" stroke="#757575" d="M2272.77,-743.23C2294.8,-746.76 2319.5,-750.13 2342.25,-751.88 2448.49,-760.03 2569.35,-759.14 2658.55,-756.57"/>
<polygon fill="#757575" stroke="#757575" points="2658.42,-760.08 2668.31,-756.28 2658.21,-753.08 2658.42,-760.08"/>
</g>
<!-- ../reusable/expandable/index.js&#45;&gt;../reusable/expandable/expandable&#45;children.js -->
<g id="edge62" class="edge">
<title>../reusable/expandable/index.js&#45;&gt;../reusable/expandable/expandable&#45;children.js</title>
<path fill="none" stroke="#757575" d="M2306.51,-730.88C2314.53,-730.88 2322.74,-730.88 2331.02,-730.88"/>
<polygon fill="#757575" stroke="#757575" points="2330.84,-734.38 2340.84,-730.88 2330.84,-727.38 2330.84,-734.38"/>
</g>
<!-- ../reusable/expandable/index.js&#45;&gt;../reusable/expandable/expandable&#45;provider.js -->
<g id="edge63" class="edge">
<title>../reusable/expandable/index.js&#45;&gt;../reusable/expandable/expandable&#45;provider.js</title>
<path fill="none" stroke="#757575" d="M2285.16,-743.23C2292.48,-745.62 2299.62,-748.47 2306.25,-751.88 2325.56,-761.79 2322.8,-775.25 2342.25,-784.88 2350.57,-788.99 2359.44,-792.47 2368.55,-795.4"/>
<polygon fill="#757575" stroke="#757575" points="2367.29,-798.67 2377.88,-798.16 2369.28,-791.96 2367.29,-798.67"/>
</g>
<!-- ../reusable/heading.js&#45;&gt;../reusable/index.js -->
<g id="edge65" class="edge">
<title>../reusable/heading.js&#45;&gt;../reusable/index.js</title>
<path fill="none" stroke="#757575" d="M2132.75,-649.84C2113.83,-648.19 2093.43,-646.03 2074.61,-643.68"/>
<polygon fill="#757575" stroke="#757575" points="2075.3,-640.24 2064.94,-642.44 2074.41,-647.18 2075.3,-640.24"/>
</g>
<!-- ../reusable/input.js&#45;&gt;../reusable/index.js -->
<g id="edge81" class="edge">
<title>../reusable/input.js&#45;&gt;../reusable/index.js</title>
<path fill="none" stroke="#757575" d="M2174.55,-579.18C2154.45,-584.1 2127.44,-589.61 2104.25,-596.88 2089.31,-601.56 2073.53,-607.67 2059.06,-613.45"/>
<polygon fill="#757575" stroke="#757575" points="2058.16,-610.04 2050.18,-617.02 2060.77,-616.54 2058.16,-610.04"/>
</g>
<!-- ../reusable/kbd.js&#45;&gt;../reusable/utils.js -->
<g id="edge82" class="edge">
<title>../reusable/kbd.js&#45;&gt;../reusable/utils.js</title>
<path fill="none" stroke="#757575" d="M2264.47,-520.73C2308.58,-517.59 2369.39,-513.26 2416.34,-509.92"/>
<polygon fill="#757575" stroke="#757575" points="2416.41,-513.43 2426.14,-509.22 2415.92,-506.44 2416.41,-513.43"/>
</g>
<!-- ../reusable/link.js&#45;&gt;../reusable/index.js -->
<g id="edge83" class="edge">
<title>../reusable/link.js&#45;&gt;../reusable/index.js</title>
<path fill="none" stroke="#757575" d="M2160.79,-457.14C2141.98,-461.4 2120.59,-467.87 2104.25,-479.88 2058.97,-513.13 2029.63,-573.85 2015.31,-607.1"/>
<polygon fill="#757575" stroke="#757575" points="2012.12,-605.66 2011.47,-616.23 2018.58,-608.37 2012.12,-605.66"/>
</g>
<!-- ../reusable/list.js&#45;&gt;../reusable/index.js -->
<g id="edge84" class="edge">
<title>../reusable/list.js&#45;&gt;../reusable/index.js</title>
<path fill="none" stroke="#757575" d="M2148.49,-414.1C2132.91,-417.51 2116.82,-423.03 2104.25,-432.88 2046.65,-477.99 2020.54,-564.92 2010.44,-606.71"/>
<polygon fill="#757575" stroke="#757575" points="2007.09,-605.68 2008.24,-616.21 2013.91,-607.26 2007.09,-605.68"/>
</g>
<!-- ../reusable/text&#45;input.js&#45;&gt;../reusable/index.js -->
<g id="edge85" class="edge">
<title>../reusable/text&#45;input.js&#45;&gt;../reusable/index.js</title>
<path fill="none" stroke="#757575" d="M2141.29,-373.19C2127.92,-376.69 2114.71,-382.09 2104.25,-390.88 2036.3,-447.94 2014.48,-558.25 2007.79,-606.57"/>
<polygon fill="#757575" stroke="#757575" points="2004.36,-605.84 2006.56,-616.2 2011.3,-606.73 2004.36,-605.84"/>
</g>
<!-- ../reusable/text.js&#45;&gt;../reusable/index.js -->
<g id="edge86" class="edge">
<title>../reusable/text.js&#45;&gt;../reusable/index.js</title>
<path fill="none" stroke="#757575" d="M2145.9,-329.59C2130.89,-333.02 2115.75,-338.71 2104.25,-348.88 2025.84,-418.2 2009.33,-552.18 2005.89,-606.46"/>
<polygon fill="#757575" stroke="#757575" points="2002.41,-605.95 2005.38,-616.12 2009.4,-606.32 2002.41,-605.95"/>
</g>
<!-- ../utils/languages.js -->
<g id="node55" class="node">
<title>../utils/languages.js</title>
<path fill="none" stroke="#cfffac" d="M287.71,-485.75C287.71,-485.75 172.79,-485.75 172.79,-485.75 168.83,-485.75 164.88,-481.79 164.88,-477.83 164.88,-477.83 164.88,-469.92 164.88,-469.92 164.88,-465.96 168.83,-462 172.79,-462 172.79,-462 287.71,-462 287.71,-462 291.67,-462 295.62,-465.96 295.62,-469.92 295.62,-469.92 295.62,-477.83 295.62,-477.83 295.62,-481.79 291.67,-485.75 287.71,-485.75"/>
<text xml:space="preserve" text-anchor="middle" x="230.25" y="-468.45" font-family="Arial" font-size="14.00" fill="#cfffac">../utils/languages.js</text>
</g>
<!-- profile.js -->
<g id="node56" class="node">
<title>profile.js</title>
<path fill="none" stroke="#c6c5fe" d="M58.33,-827.75C58.33,-827.75 7.92,-827.75 7.92,-827.75 3.96,-827.75 0,-823.79 0,-819.83 0,-819.83 0,-811.92 0,-811.92 0,-807.96 3.96,-804 7.92,-804 7.92,-804 58.33,-804 58.33,-804 62.29,-804 66.25,-807.96 66.25,-811.92 66.25,-811.92 66.25,-819.83 66.25,-819.83 66.25,-823.79 62.29,-827.75 58.33,-827.75"/>
<text xml:space="preserve" text-anchor="middle" x="33.12" y="-810.45" font-family="Arial" font-size="14.00" fill="#c6c5fe">profile.js</text>
</g>
<!-- profile.js&#45;&gt;../components/breadcrumb.js -->
<g id="edge87" class="edge">
<title>profile.js&#45;&gt;../components/breadcrumb.js</title>
<path fill="none" stroke="#757575" d="M49.75,-828.06C63.01,-837.81 82.92,-851.1 102.25,-858.88 112.93,-863.17 124.41,-866.79 135.95,-869.83"/>
<polygon fill="#757575" stroke="#757575" points="134.99,-873.2 145.54,-872.2 136.67,-866.4 134.99,-873.2"/>
</g>
<!-- profile.js&#45;&gt;../components/link.js -->
<g id="edge91" class="edge">
<title>profile.js&#45;&gt;../components/link.js</title>
<path fill="none" stroke="#757575" d="M66.61,-819.34C141.59,-827.04 332.59,-844.88 492.75,-844.88 492.75,-844.88 492.75,-844.88 1090.75,-844.88 1301.45,-844.88 1549.47,-831.11 1674.1,-823.24"/>
<polygon fill="#757575" stroke="#757575" points="1674.14,-826.74 1683.89,-822.61 1673.69,-819.75 1674.14,-826.74"/>
</g>
<!-- profile.js&#45;&gt;../reusable/index.js -->
<g id="edge95" class="edge">
<title>profile.js&#45;&gt;../reusable/index.js</title>
<path fill="none" stroke="#757575" d="M39.94,-828.21C49.86,-847.84 71.94,-885.98 102.25,-905.88 251.58,-1003.87 314.13,-1000.88 492.75,-1000.88 492.75,-1000.88 492.75,-1000.88 1419.5,-1000.88 1527.27,-1000.88 1819.43,-1041.98 1903.75,-974.88 1955.51,-933.69 1989.67,-723.63 1999.83,-653.05"/>
<polygon fill="#757575" stroke="#757575" points="2003.26,-653.8 2001.19,-643.4 1996.33,-652.82 2003.26,-653.8"/>
</g>
<!-- profile.js&#45;&gt;../components/html.js -->
<g id="edge88" class="edge">
<title>profile.js&#45;&gt;../components/html.js</title>
<path fill="none" stroke="#757575" d="M66.55,-812.65C209.76,-798.39 787.99,-740.82 1005.48,-719.17"/>
<polygon fill="#757575" stroke="#757575" points="1005.7,-722.66 1015.3,-718.19 1005,-715.7 1005.7,-722.66"/>
</g>
<!-- profile.js&#45;&gt;../components/layout.js -->
<g id="edge89" class="edge">
<title>profile.js&#45;&gt;../components/layout.js</title>
<path fill="none" stroke="#757575" d="M42.39,-803.65C54.69,-785.75 78.88,-751.63 102.25,-724.88 136.66,-685.48 181.01,-643.6 207.16,-619.7"/>
<polygon fill="#757575" stroke="#757575" points="209.44,-622.36 214.49,-613.05 204.73,-617.18 209.44,-622.36"/>
</g>
<!-- profile.js&#45;&gt;../components/link&#45;callout.js -->
<g id="edge90" class="edge">
<title>profile.js&#45;&gt;../components/link&#45;callout.js</title>
<path fill="none" stroke="#757575" d="M35.77,-828.03C42.02,-872.18 65.78,-1023.05 102.25,-1051.88 287.04,-1197.92 598.49,-1131.92 719.72,-1098.27"/>
<polygon fill="#757575" stroke="#757575" points="720.38,-1101.72 729.05,-1095.63 718.47,-1094.98 720.38,-1101.72"/>
</g>
<!-- profile.js&#45;&gt;../components/page&#45;layout.js -->
<g id="edge92" class="edge">
<title>profile.js&#45;&gt;../components/page&#45;layout.js</title>
<path fill="none" stroke="#757575" d="M33.97,-828.15C34.27,-864.01 40.59,-968.97 102.25,-1014.88 188.46,-1079.05 499.61,-1063.97 665.02,-1050.72"/>
<polygon fill="#757575" stroke="#757575" points="665,-1054.24 674.68,-1049.94 664.43,-1047.26 665,-1054.24"/>
</g>
<!-- profile.js&#45;&gt;../components/seo.js -->
<g id="edge93" class="edge">
<title>profile.js&#45;&gt;../components/seo.js</title>
<path fill="none" stroke="#757575" d="M33.5,-803.75C32.19,-764.48 33.82,-639.79 102.25,-578.88 115.05,-567.48 131.58,-561.02 148.46,-557.58"/>
<polygon fill="#757575" stroke="#757575" points="148.78,-561.07 158.07,-555.97 147.63,-554.17 148.78,-561.07"/>
</g>
<!-- profile.js&#45;&gt;../components/staff&#45;photo&#45;placeholder.js -->
<g id="edge94" class="edge">
<title>profile.js&#45;&gt;../components/staff&#45;photo&#45;placeholder.js</title>
<path fill="none" stroke="#757575" d="M35.33,-803.76C40.43,-755.04 61.85,-574.33 102.25,-536.88 103.02,-536.16 103.81,-535.47 104.61,-534.79"/>
<polygon fill="#757575" stroke="#757575" points="106.38,-537.82 112.43,-529.12 102.28,-532.15 106.38,-537.82"/>
</g>
<!-- profile.js&#45;&gt;../utils/languages.js -->
<g id="edge96" class="edge">
<title>profile.js&#45;&gt;../utils/languages.js</title>
<path fill="none" stroke="#757575" d="M34.91,-803.79C38.64,-750.71 56.23,-538.86 102.25,-494.88 115.96,-481.77 134.54,-475.05 153.25,-471.91"/>
<polygon fill="#757575" stroke="#757575" points="153.6,-475.4 163.06,-470.63 152.69,-468.46 153.6,-475.4"/>
</g>
</g>
</svg>
